<?xml version="1.0" encoding="UTF-8"?>
<svg version="1.1" xmlns="http://www.w3.org/2000/svg" width="4500" height="4500">
<path d="M0 0 C1.0582196 0.20627014 2.11643921 0.41254028 3.20672607 0.62506104 C96.48013833 18.88301478 188.06644533 44.38629792 278 75 C278.76578369 75.26020935 279.53156738 75.5204187 280.32055664 75.78851318 C335.86494011 94.6779543 390.32462777 116.34276623 444 140 C444.80479797 140.35449219 445.60959595 140.70898438 446.43878174 141.07421875 C469.51923812 151.25038678 492.32768903 161.8929614 514.95578003 173.03770447 C519.97029299 175.5044051 525.00888604 177.91529775 530.06445312 180.296875 C552.55763906 190.89730008 574.57891388 202.52180143 596.34130859 214.54199219 C599.16268449 216.08921504 601.99554301 217.61348201 604.83203125 219.1328125 C616.0414824 225.14151505 627.11821535 231.32307089 638.07861328 237.77563477 C644.75732622 241.70566265 651.48547757 245.5324985 658.25 249.3125 C679.92250807 261.47590969 700.99659682 274.7252414 722 288 C723.00063477 288.63228516 724.00126953 289.26457031 725.03222656 289.91601562 C761.3765104 312.92750937 796.98980802 337.12742896 831.79541016 362.40429688 C833.98714657 363.99069657 836.18569808 365.56713771 838.38671875 367.140625 C848.38236671 374.29680128 858.19550317 381.66744367 867.953125 389.14453125 C872.39991874 392.55021058 876.88142576 395.90646106 881.375 399.25 C887.81450219 404.05376518 894.10270767 409.02680794 900.35546875 414.0703125 C903.85669585 416.89325245 907.3933221 419.66881493 910.9375 422.4375 C918.70849294 428.52267556 926.36178764 434.74941706 934 441 C934.70592285 441.57685547 935.4118457 442.15371094 936.13916016 442.74804688 C944.20720346 449.34536261 952.21914661 455.99651498 960.10717773 462.80834961 C963.58696081 465.80837113 967.11271474 468.73786792 970.6875 471.625 C975.38025975 475.43142592 979.82606263 479.45827771 984.26953125 483.55078125 C986.84459883 485.86060582 989.48254363 488.03243013 992.1875 490.1875 C997.77383253 494.69027665 1002.9706212 499.56366783 1008.16674805 504.50854492 C1012.0724634 508.22145831 1016.04802175 511.8242862 1020.11791992 515.35644531 C1022.81228891 517.70934349 1025.44121128 520.12881164 1028.0625 522.5625 C1028.61067383 523.07006836 1029.15884766 523.57763672 1029.72363281 524.10058594 C1031.48400436 525.73202887 1033.24236648 527.36560784 1035 529 C1035.58700684 529.54575684 1036.17401367 530.09151367 1036.77880859 530.65380859 C1039.82952089 533.49212427 1042.87575641 536.33510963 1045.91674805 539.18383789 C1048.39020998 541.49926612 1050.87126304 543.80568687 1053.36376953 546.10058594 C1067.41052848 559.10328105 1080.86587138 572.71336294 1094.38720703 586.25683594 C1097.93950875 589.81488405 1101.49635168 593.36835358 1105.05449867 596.92055511 C1107.8256778 599.68810881 1110.59445649 602.45805416 1113.36252975 605.22871399 C1114.67339328 606.54023871 1115.98498368 607.8510374 1117.29735184 609.16105652 C1129.59799905 621.44447389 1129.59799905 621.44447389 1134.69223022 627.4720459 C1136.66698169 629.77927891 1138.82538929 631.88261589 1141 634 C1144.57883516 637.48465529 1147.87995089 641.12374475 1151.1484375 644.89453125 C1154.18078751 648.34270985 1157.34250988 651.66673208 1160.5 655 C1164.89866996 659.64354437 1169.20839167 664.33890896 1173.40136719 669.16943359 C1175.51598364 671.59084383 1177.69364771 673.95120451 1179.875 676.3125 C1183.18336914 679.93523905 1186.36012358 683.61692891 1189.4375 687.4375 C1192.65945075 691.43226434 1196.00677983 695.24531667 1199.5 699 C1203.71349123 703.5333655 1207.68293481 708.2095047 1211.5625 713.03125 C1214.42925516 716.52281077 1217.39760184 719.91540154 1220.375 723.3125 C1225.08789871 728.70306595 1229.59363432 734.20898388 1233.97607422 739.87036133 C1237.05417467 743.83454772 1240.23487496 747.68876113 1243.5 751.5 C1248.72201362 757.60532547 1253.69115196 763.88687031 1258.62060547 770.22949219 C1260.46277495 772.59399008 1262.31873173 774.94748769 1264.17456055 777.30126953 C1269.32920445 783.84227236 1274.43572756 790.41918367 1279.49511719 797.03417969 C1280.59083245 798.46550664 1281.68803911 799.89569225 1282.78613281 801.32519531 C1291.5148646 812.68967902 1300.0889488 824.14161291 1308.42333984 835.79833984 C1310.56269254 838.78574811 1312.71462998 841.76397416 1314.86743164 844.74169922 C1315.95727059 846.24925273 1317.04629869 847.75739274 1318.13452148 849.26611328 C1320.78216993 852.93659972 1323.43683748 856.60149448 1326.109375 860.25390625 C1350.82773818 894.10975349 1373.75932739 929.47861335 1396 965 C1396.48871582 965.77794922 1396.97743164 966.55589844 1397.48095703 967.35742188 C1427.59765259 1015.34697146 1455.50336612 1064.7993428 1481.453125 1115.15234375 C1483.37783817 1118.885597 1485.31869589 1122.60861324 1487.28833008 1126.31835938 C1493.47757861 1137.9819531 1499.4061702 1149.75424236 1505.1875 1161.625 C1505.64021271 1162.55276245 1506.09292542 1163.4805249 1506.55935669 1164.43640137 C1514.11132538 1179.92753442 1521.3962893 1195.52125173 1528.42382812 1211.25654602 C1530.36385711 1215.59713557 1532.33685825 1219.92093819 1534.328125 1224.23828125 C1557.42323487 1274.4115676 1577.39136202 1326.01586938 1596 1378 C1596.29841797 1378.83337891 1596.59683594 1379.66675781 1596.90429688 1380.52539062 C1631.56830983 1477.44927934 1658.48272623 1576.79350206 1716.6875 1985.625 C1716.74843842 1986.7980368 1716.80937683 1987.97107361 1716.87216187 1989.17965698 C1718.63768301 2023.641184 1719.2086818 2058.06051289 1719.1875 2092.5625 C1719.18709969 2094.03263172 1719.18709969 2094.03263172 1719.18669128 2095.53246307 C1719.17516628 2129.39267059 1718.75133115 2163.17799935 1717 2197 C1716.93683594 2198.23320984 1716.87367187 2199.46641968 1716.80859375 2200.73699951 C1712.72573297 2279.60851323 1704.7736317 2358.21609179 1627 2716 C1626.74814941 2716.82260315 1626.49629883 2717.6452063 1626.23681641 2718.49273682 C1613.11709767 2761.28110291 1599.00538763 2803.89293031 1582.90307617 2845.6572876 C1581.91955454 2848.20868735 1580.9393188 2850.76133886 1579.95898438 2853.31396484 C1565.33898495 2891.32785889 1549.66939643 2928.84122675 1533 2966 C1532.68651611 2966.6997998 1532.37303223 2967.39959961 1532.05004883 2968.12060547 C1521.5716734 2991.50059791 1510.54994496 3014.59466042 1499.20294189 3037.56481934 C1497.99997259 3040.00005549 1496.79855438 3042.43605295 1495.59716797 3044.87207031 C1487.6898095 3060.89128268 1479.72615059 3076.85022166 1471.046875 3092.46875 C1468.71506671 3096.67160874 1466.44667967 3100.90579964 1464.203125 3105.15625 C1456.87643612 3119.02999848 1449.36874416 3132.73201532 1441.3828125 3146.2421875 C1437.90177563 3152.13642151 1434.53842451 3158.09360451 1431.1875 3164.0625 C1426.67379139 3172.0832291 1422.07865202 3180.03667375 1417.28417969 3187.89257812 C1415.76963382 3190.3780458 1414.2638403 3192.86873699 1412.7578125 3195.359375 C1405.80320235 3206.84427357 1398.74851288 3218.2578175 1391.53613281 3229.58251953 C1389.94199714 3232.09128168 1388.35708261 3234.60569804 1386.7734375 3237.12109375 C1363.78466914 3273.55814118 1339.39120555 3309.19933433 1314 3344 C1313.44876465 3344.75603516 1312.8975293 3345.51207031 1312.32958984 3346.29101562 C1304.23068952 3357.38232764 1295.96812869 3368.34148169 1287.625 3379.25 C1284.7876561 3382.96126913 1281.97768152 3386.69068481 1279.1875 3390.4375 C1274.69385511 3396.44892248 1270.05204678 3402.33884689 1265.3984375 3408.2265625 C1264.03166333 3409.95984594 1262.67097099 3411.69770382 1261.3125 3413.4375 C1254.80088339 3421.77146816 1248.16747094 3430.00081144 1241.4765625 3438.19140625 C1240.16952459 3439.7923548 1238.86576644 3441.39597976 1237.5625 3443 C1233.13115296 3448.44422636 1228.62736461 3453.82109569 1224.08105469 3459.16918945 C1221.22107147 3462.53888745 1218.40725959 3465.94048907 1215.625 3469.375 C1207.70246432 3479.10069344 1199.39837479 3488.51397546 1190.9765625 3497.80859375 C1188.56308399 3500.48440688 1186.19660866 3503.19898161 1183.83203125 3505.91796875 C1180.9011905 3509.24875365 1177.90771052 3512.5228716 1174.91796875 3515.80078125 C1172.87480508 3518.04822519 1172.87480508 3518.04822519 1171 3521 C1170.34 3521 1169.68 3521 1169 3521 C1168.99902319 3519.76660436 1168.99804638 3518.53320873 1168.99703997 3517.26243746 C1168.95373981 3462.83472947 1168.90671678 3408.40702568 1168.84101868 3353.9793396 C1168.83952533 3352.74087739 1168.83952533 3352.74087739 1168.83800181 3351.47739574 C1168.81633693 3333.52855098 1168.79401378 3315.5797071 1168.77101372 3297.630864 C1168.75973644 3288.82715168 1168.74860444 3280.02343917 1168.73754883 3271.21972656 C1168.73589498 3269.90570176 1168.73589498 3269.90570176 1168.73420772 3268.56513099 C1168.6986193 3240.23522213 1168.67260013 3211.90531442 1168.65161031 3183.57539129 C1168.62996683 3154.43209294 1168.59853568 3125.28882081 1168.55500887 3096.14554653 C1168.54884776 3092.01737392 1168.54279709 3087.88920116 1168.53681374 3083.76102829 C1168.53563285 3082.94864504 1168.53445197 3082.13626179 1168.53323531 3081.29926086 C1168.51460535 3068.28831147 1168.50611556 3055.27737481 1168.50153876 3042.26641372 C1168.49670263 3029.14593119 1168.48089614 3016.0254966 1168.45433434 3002.9050398 C1168.44026894 2995.81237533 1168.43079104 2988.71978309 1168.43499184 2981.62710381 C1168.45213777 2947.65577082 1168.42541932 2913.85019826 1162.3125 2880.3125 C1162.18750122 2879.60872223 1162.06250244 2878.90494446 1161.93371582 2878.17984009 C1155.62608275 2842.80379785 1144.66389199 2808.7801491 1130 2776 C1129.65259766 2775.20883789 1129.30519531 2774.41767578 1128.94726562 2773.60253906 C1113.15199354 2737.7027371 1090.5482472 2704.61543338 1065 2675 C1064.36191406 2674.26007812 1063.72382813 2673.52015625 1063.06640625 2672.7578125 C1061.38880818 2670.82838101 1059.69521607 2668.91395363 1058 2667 C1057.12988281 2665.99066406 1057.12988281 2665.99066406 1056.2421875 2664.9609375 C1050.87891379 2658.84049573 1045.18128107 2653.07449953 1039.4375 2647.3125 C1038.2323877 2646.10049927 1038.2323877 2646.10049927 1037.00292969 2644.86401367 C1032.1631472 2640.03663325 1027.19986195 2635.43560706 1022 2631 C1020.97885149 2630.111039 1019.95799564 2629.22174165 1018.9375 2628.33203125 C999.4177315 2611.58967662 978.16757857 2597.00537563 956 2584 C955.31744141 2583.59749023 954.63488281 2583.19498047 953.93164062 2582.78027344 C884.27071375 2542.01696551 807.22396777 2526.81712861 727.3125 2525.4375 C724.94205185 2525.39417673 722.57160907 2525.35055877 720.20117188 2525.30664062 C714.46750517 2525.20103924 708.73378362 2525.09903936 703 2525 C702.99902319 2523.98628549 702.99804638 2522.97257097 702.99703997 2521.92813784 C702.95372547 2477.17945243 702.90668261 2432.4307723 702.84101868 2387.68211365 C702.83952533 2386.66336341 702.83952533 2386.66336341 702.83800181 2385.62403236 C702.81633527 2370.85827214 702.794012 2356.09251298 702.77101372 2341.32675478 C702.75973677 2334.08396627 702.74860469 2326.84117753 702.73754883 2319.59838867 C702.73589498 2318.51736319 702.73589498 2318.51736319 702.73420772 2317.4144988 C702.69864022 2294.12178927 702.67261016 2270.82908115 702.65161031 2247.53635431 C702.6299506 2223.56827786 702.59850073 2199.60023322 702.55500887 2175.63218598 C702.54884806 2172.2345316 702.54279733 2168.83687703 702.53681374 2165.43922234 C702.53563285 2164.77061931 702.53445197 2164.10201629 702.53323531 2163.41315257 C702.513486 2152.06208463 702.50563264 2140.71103876 702.50065396 2129.35995459 C702.49536135 2119.22434111 702.47901616 2109.08878132 702.45433434 2098.95319671 C702.44045072 2093.12239021 702.4310985 2087.29167951 702.43499184 2081.46085548 C702.44831449 2056.46548247 701.9690004 2031.84173347 699 2007 C698.83580946 2005.61903222 698.83580946 2005.61903222 698.66830194 2004.2101661 C698.11473704 1999.64487817 697.47668268 1995.10434525 696.75 1990.5625 C696.64773102 1989.90841156 696.54546204 1989.25432312 696.44009399 1988.58041382 C684.0145842 1909.33483582 656.00864788 1832.99846935 609 1749 C608.38688965 1747.94538574 607.7737793 1746.89077148 607.14208984 1745.80419922 C592.79869931 1721.1511588 577.52050899 1697.25028269 561 1674 C560.43716309 1673.2054541 559.87432617 1672.4109082 559.29443359 1671.59228516 C540.96515369 1645.76841527 521.43037353 1620.6833381 500.8828125 1596.58398438 C498.03615846 1593.24207912 495.25419148 1589.85582276 492.5 1586.4375 C488.37309794 1581.36392507 483.99897442 1576.56258858 479.5546875 1571.76953125 C477.49886278 1569.54081607 475.48383043 1567.29232081 473.5 1565 C469.26454302 1560.12067307 464.87890225 1555.37951356 460.5 1550.62939453 C458.96569653 1548.96273741 457.43567833 1547.29222477 455.90625 1545.62109375 C451.01278822 1540.28403203 446.08675722 1535.02443502 440.91810608 1529.95054626 C439.12128975 1528.12334107 437.44958929 1526.24410608 435.78686523 1524.29516602 C431.94318661 1519.87514846 427.86902317 1515.72465345 423.72265625 1511.58984375 C422.95247665 1510.81870743 422.18229706 1510.04757111 421.38877869 1509.25306702 C419.77058627 1507.63419847 418.15114788 1506.01657449 416.53051758 1504.40014648 C414.06932768 1501.94431282 411.61352191 1499.48318635 409.15820312 1497.02148438 C407.57584133 1495.43978347 405.99316933 1493.85839283 404.41015625 1492.27734375 C403.68594986 1491.55111313 402.96174347 1490.82488251 402.21559143 1490.0766449 C398.18334685 1486.06262167 394.06002268 1482.21918013 389.73814392 1478.51795959 C386.26826483 1475.48763731 383.1232 1472.13821687 379.90625 1468.84375 C377.09233653 1466.02583949 374.09724113 1463.43981479 371.08789062 1460.83398438 C366.95494557 1457.20364255 362.99309335 1453.38798881 359 1449.60546875 C355.01621231 1445.84732528 350.966461 1442.18865793 346.83056641 1438.59863281 C344.40915617 1436.48401636 342.04879549 1434.30635229 339.6875 1432.125 C335.17096163 1428.00093324 330.50866984 1424.12063135 325.75 1420.28125 C322.91900422 1417.93281032 320.20616402 1415.49090098 317.5 1413 C313.10621452 1408.96045182 308.58161176 1405.15320381 303.9375 1401.40625 C300.63646697 1398.7022123 297.41234787 1395.91888768 294.1875 1393.125 C288.96952132 1388.6153798 283.63238911 1384.30222134 278.18261719 1380.0769043 C274.17922593 1376.96122641 270.28810999 1373.73959832 266.4375 1370.4375 C261.18961056 1365.94531298 255.79484815 1361.69608505 250.296875 1357.515625 C246.9400259 1354.96314544 243.62373389 1352.36124444 240.3125 1349.75 C222.0549696 1335.37781597 203.58518871 1321.33939785 184.86328125 1307.578125 C181.62679305 1305.19902341 178.39526361 1302.81343183 175.16796875 1300.421875 C165.55442174 1293.30333516 155.86397191 1286.31306958 146.06640625 1279.45019531 C143.35128432 1277.54473403 140.64474661 1275.62727521 137.93798828 1273.70996094 C134.29681005 1271.13312712 130.64828938 1268.56675056 127 1266 C126.18950195 1265.42862305 125.37900391 1264.85724609 124.54394531 1264.26855469 C108.80458678 1253.18694471 92.82602246 1242.48432093 76.78761292 1231.84281921 C71.92970286 1228.61944738 67.08058208 1225.38315395 62.23510742 1222.14111328 C30.01972657 1200.59833153 -2.78547014 1179.94165838 -35.93066406 1159.86279297 C-39.17344823 1157.89473353 -42.41129295 1155.91872701 -45.6484375 1153.94140625 C-62.31970977 1143.76551166 -79.11261198 1133.81271841 -96 1124 C-97.12180664 1123.34757324 -98.24361328 1122.69514648 -99.39941406 1122.02294922 C-113.17310201 1114.02030311 -127.01618491 1106.15135543 -140.9296875 1098.39453125 C-144.86162001 1096.20088071 -148.78362193 1093.99126043 -152.6953125 1091.76171875 C-164.26458975 1085.16893947 -175.92545593 1078.77009407 -187.67822266 1072.51147461 C-193.8444776 1069.22758095 -199.99393801 1065.91794258 -206.11181641 1062.54467773 C-217.53516217 1056.24830279 -229.10478559 1050.2541537 -240.71557617 1044.31298828 C-242.04350017 1043.63322228 -243.37138083 1042.95337163 -244.69921875 1042.2734375 C-245.37139435 1041.92936356 -246.04356995 1041.58528961 -246.7361145 1041.23078918 C-251.01107872 1039.03698685 -255.26534097 1036.80708814 -259.51031494 1034.55586243 C-271.52326556 1028.18899221 -283.66044464 1022.07602683 -295.82104492 1015.99682617 C-299.40353726 1014.20564037 -302.98187159 1012.40622171 -306.56054688 1010.60742188 C-321.91210903 1002.9132562 -337.3837229 995.57114025 -352.9826355 988.39541626 C-357.07286615 986.50384023 -361.14242431 984.57088112 -365.20703125 982.625 C-366.50578082 982.00634547 -367.80460618 981.38785004 -369.10351562 980.76953125 C-370.98266955 979.87455485 -372.86032958 978.97690232 -374.73461914 978.07177734 C-394.47820005 968.55170749 -412.13630147 962.94067988 -434 969 C-439.12295743 970.9321857 -444.04765442 973.23715868 -449 975.5625 C-450.35834093 976.19867688 -451.71671421 976.83478471 -453.07511902 977.4708252 C-456.9216566 979.27342261 -460.76771384 981.07704385 -464.61364365 982.88093758 C-466.86552289 983.93693805 -469.11776126 984.9921693 -471.37002563 986.04734802 C-495.30665845 997.26888833 -519.03380787 1008.87115104 -542.65960693 1020.73199463 C-546.07171553 1022.44352748 -549.48611693 1024.15045945 -552.90050411 1025.85744095 C-577.57210734 1038.19193117 -577.57210734 1038.19193117 -602 1051 C-603.20851405 1051.64430464 -604.41724954 1052.28819412 -605.6262207 1052.93164062 C-608.94129624 1054.69892808 -612.25265229 1056.47294383 -615.5625 1058.25 C-616.75349296 1058.88917207 -617.94449248 1059.52833189 -619.13549805 1060.16748047 C-620.96309093 1061.1483813 -622.79059789 1062.12944085 -624.61787415 1063.1109314 C-628.66459711 1065.28442739 -632.71448828 1067.45192477 -636.765625 1069.6171875 C-648.00070891 1075.63128143 -659.17386277 1081.73458786 -670.24951172 1088.0378418 C-676.47608104 1091.58083991 -682.72838768 1095.07319279 -688.99902344 1098.53759766 C-701.80096496 1105.61120664 -714.47698633 1112.87249196 -727.08349609 1120.28808594 C-729.95377993 1121.97286999 -732.82924283 1123.64838401 -735.70703125 1125.3203125 C-758.69761005 1138.6777277 -781.62667452 1152.12787007 -804.12109375 1166.30859375 C-810.52632513 1170.34400888 -816.98209893 1174.29553708 -823.4375 1178.25 C-831.87186259 1183.42592557 -840.24346124 1188.67690243 -848.52734375 1194.08984375 C-853.1030655 1197.07770196 -857.71099699 1200.01437494 -862.31835938 1202.953125 C-871.90752196 1209.07025175 -881.4571143 1215.23023029 -890.890625 1221.58447266 C-893.41160895 1223.27621628 -895.93992387 1224.95672033 -898.46875 1226.63671875 C-936.67006006 1252.02130263 -974.32557061 1278.2012549 -1011.2109375 1305.46484375 C-1014.39736442 1307.81988755 -1017.59020451 1310.16577728 -1020.7890625 1312.50390625 C-1030.99445341 1319.97215524 -1041.03224174 1327.62549124 -1050.98535156 1335.42626953 C-1053.89331825 1337.69781016 -1056.82070305 1339.94358198 -1059.75 1342.1875 C-1069.96294927 1350.03574887 -1080.0580211 1358.01371691 -1090.03393555 1366.16113281 C-1094.35556821 1369.68443561 -1098.72231383 1373.14128858 -1103.125 1376.5625 C-1108.53953139 1380.77884055 -1113.77564474 1385.17134166 -1118.96362305 1389.66259766 C-1122.4106554 1392.64567155 -1125.89320189 1395.56955464 -1129.4375 1398.4375 C-1135.124775 1403.05736855 -1140.64453781 1407.8588689 -1146.16796875 1412.671875 C-1148.63736458 1414.82221615 -1151.11764334 1416.95829919 -1153.61328125 1419.078125 C-1160.59672334 1425.01014051 -1167.4078753 1431.08363193 -1174.11328125 1437.328125 C-1176.40093709 1439.44552229 -1178.70656037 1441.52230485 -1181.0625 1443.5625 C-1185.93761668 1447.78488139 -1190.66847742 1452.16446451 -1195.41015625 1456.53515625 C-1196.95941379 1457.96260485 -1198.51075718 1459.38775404 -1200.0625 1460.8125 C-1202.76075677 1463.29248083 -1205.45067301 1465.78130563 -1208.1378479 1468.27328491 C-1209.34282952 1469.39062647 -1210.54849353 1470.50723276 -1211.75497437 1471.62295532 C-1224.11859034 1483.07598951 -1236.07671103 1494.92010404 -1247.97851562 1506.84814453 C-1250.62279861 1509.49819095 -1253.27164132 1512.14362764 -1255.9217701 1514.78782654 C-1257.99810641 1516.86052976 -1260.07203159 1518.93563245 -1262.14525986 1521.01144409 C-1263.12119447 1521.98803691 -1264.09784762 1522.96391231 -1265.07529068 1523.93899536 C-1270.09818943 1528.95239428 -1275.01024519 1534.00074312 -1279.61959839 1539.39941406 C-1281.31853325 1541.36934167 -1283.12914004 1543.19365245 -1285 1545 C-1288.16747959 1548.12508502 -1291.11885247 1551.36241889 -1294.01953125 1554.734375 C-1296.46606231 1557.53316793 -1298.98095883 1560.26671706 -1301.5 1563 C-1305.73785163 1567.60772119 -1309.91699561 1572.25443912 -1314 1577 C-1314.42361816 1577.49193848 -1314.84723633 1577.98387695 -1315.28369141 1578.49072266 C-1318.35071457 1582.05436158 -1321.40919397 1585.62520344 -1324.46240234 1589.20068359 C-1325.45379386 1590.3608226 -1326.44622904 1591.52007095 -1327.43994141 1592.67822266 C-1333.02758561 1599.19093457 -1338.46745421 1605.78971347 -1343.73681641 1612.56298828 C-1346.70473558 1616.37260306 -1349.72678383 1620.13127879 -1352.78930664 1623.86523438 C-1359.21956359 1631.70612835 -1365.39491354 1639.70002677 -1371.41699219 1647.85791016 C-1373.09774369 1650.13226451 -1374.78685941 1652.40025844 -1376.4765625 1654.66796875 C-1383.88079107 1664.62893682 -1391.06925665 1674.70441426 -1398 1685 C-1398.54124512 1685.80163574 -1399.08249023 1686.60327148 -1399.64013672 1687.42919922 C-1440.39528968 1747.86638937 -1475.1195875 1812.00899787 -1499 1881 C-1499.58491211 1882.68875244 -1499.58491211 1882.68875244 -1500.18164062 1884.41162109 C-1521.24224136 1945.95198806 -1532.12535291 2010.20944739 -1532.15821838 2075.24810791 C-1532.16279866 2077.20402619 -1532.16780075 2079.15994351 -1532.17318195 2081.11585975 C-1532.18660587 2086.42941033 -1532.19413499 2091.74295462 -1532.20060861 2097.0565176 C-1532.20868282 2102.80946516 -1532.22235591 2108.5623999 -1532.23532104 2114.31533813 C-1532.25698518 2124.26244958 -1532.27516596 2134.20956239 -1532.29092598 2144.15668488 C-1532.31371696 2158.53824597 -1532.34184654 2172.91979281 -1532.37124526 2187.30134174 C-1532.41880865 2210.63903921 -1532.46211129 2233.97674253 -1532.50268555 2257.31445312 C-1532.54209094 2279.97396298 -1532.58352672 2302.63346764 -1532.62768555 2325.29296875 C-1532.62904808 2325.99254451 -1532.63041061 2326.69212026 -1532.63181442 2327.41289528 C-1532.64550086 2334.43890092 -1532.6592283 2341.46490648 -1532.67298577 2348.49091199 C-1532.70100551 2362.80121219 -1532.72875176 2377.11151291 -1532.7563324 2391.42181396 C-1532.76013154 2393.39285361 -1532.76013154 2393.39285361 -1532.76400744 2395.40371224 C-1532.84715243 2438.60246656 -1532.92400145 2481.8012326 -1533 2525 C-1533.58990251 2525.01086262 -1534.17980501 2525.02172523 -1534.78758335 2525.03291702 C-1541.01156294 2525.1479673 -1547.23547766 2525.2661567 -1553.45936584 2525.38604736 C-1555.77211556 2525.43020363 -1558.08487994 2525.47359942 -1560.3976593 2525.51617432 C-1633.2296467 2526.85993429 -1701.7552812 2540.34344513 -1767.04345703 2573.99511719 C-1769.02186013 2575.01122739 -1771.00865539 2576.00951175 -1772.99609375 2577.0078125 C-1810.88036352 2596.28638535 -1844.71538408 2623.52526555 -1874.66479492 2653.47949219 C-1876.19237416 2655.00486713 -1877.72783582 2656.52200672 -1879.26367188 2658.0390625 C-1885.62840329 2664.36816876 -1891.40059951 2670.97344133 -1897 2678 C-1897.93480613 2679.10180559 -1898.87615116 2680.1981494 -1899.828125 2681.28515625 C-1954.90738951 2744.44863539 -1987.58476633 2828.17332338 -1995.71483618 2911.11444211 C-1995.88639848 2912.85047215 -1996.06723947 2914.5856735 -1996.26621193 2916.31877589 C-1997.41027768 2927.51817731 -1997.15380905 2938.78815541 -1997.15821838 2950.03155518 C-1997.16278815 2952.49616887 -1997.16778877 2954.96078179 -1997.17318195 2957.42539382 C-1997.18390106 2962.77320818 -1997.19159293 2968.12101399 -1997.19658089 2973.46883583 C-1997.20401431 2981.42075912 -1997.21710365 2989.3726662 -1997.23132664 2997.32457989 C-1997.25509696 3010.70316034 -1997.27431798 3024.08174368 -1997.29092598 3037.46033478 C-1997.30737956 3050.70250088 -1997.32586756 3063.94466158 -1997.34705925 3077.18682098 C-1997.34903566 3078.42289817 -1997.34903566 3078.42289817 -1997.351052 3079.68394662 C-1997.35775429 3083.86906588 -1997.3644928 3088.05418509 -1997.37124526 3092.23930427 C-1997.41897969 3121.86509735 -1997.46217292 3151.49089547 -1997.50268555 3181.11669922 C-1997.5420479 3209.89372118 -1997.58347345 3238.67073897 -1997.62768555 3267.44775391 C-1997.62904808 3268.33513886 -1997.63041061 3269.22252381 -1997.63181442 3270.13679922 C-1997.64550006 3279.0484668 -1997.65922758 3287.96013431 -1997.67298577 3296.87180177 C-1997.70101061 3315.0251095 -1997.72875602 3333.17841766 -1997.7563324 3351.33172607 C-1997.7582347 3352.58365372 -1997.7582347 3352.58365372 -1997.76017542 3353.86087283 C-1997.84479911 3409.57390844 -1997.92288883 3465.28695355 -1998 3521 C-2001.89776609 3519.20868842 -2004.36835216 3516.73205039 -2007.1875 3513.5625 C-2007.67089844 3513.02753906 -2008.15429688 3512.49257812 -2008.65234375 3511.94140625 C-2012.47864311 3507.6720617 -2016.09383728 3503.24765938 -2019.6875 3498.78125 C-2022.19972396 3495.75979145 -2024.82419631 3492.87577314 -2027.5 3490 C-2031.71028406 3485.47014016 -2035.67638214 3480.79707379 -2039.5546875 3475.98046875 C-2042.47004418 3472.42708672 -2045.47829818 3468.96292761 -2048.5 3465.5 C-2053.78913218 3459.42819153 -2058.93980318 3453.2646073 -2064 3447 C-2065.00599761 3445.76390539 -2066.01254572 3444.52825869 -2067.01953125 3443.29296875 C-2070.3537734 3439.20130862 -2073.67933983 3435.10268897 -2077 3431 C-2077.50966309 3430.3704541 -2078.01932617 3429.7409082 -2078.54443359 3429.09228516 C-2084.89253284 3421.2383481 -2091.10666612 3413.29401986 -2097.22143555 3405.25708008 C-2100.54623636 3400.88959318 -2103.90698364 3396.55476159 -2107.3125 3392.25 C-2117.76355278 3379.00901453 -2127.99683719 3365.60341512 -2137.71337891 3351.81347656 C-2140.24015699 3348.25201402 -2142.812424 3344.72323938 -2145.375 3341.1875 C-2151.1236798 3333.24064734 -2156.80335138 3325.24757181 -2162.43896484 3317.22021484 C-2164.05540996 3314.92119203 -2165.67785406 3312.62648186 -2167.30078125 3310.33203125 C-2175.69538315 3298.43657922 -2183.81080849 3286.36998188 -2191.85107422 3274.23291016 C-2194.09977471 3270.84989586 -2196.36238331 3267.47654978 -2198.62890625 3264.10546875 C-2206.06036137 3253.04291787 -2213.40125739 3241.95669889 -2220.26171875 3230.52734375 C-2222.82676783 3226.25857903 -2225.47708042 3222.04656469 -2228.13427734 3217.8347168 C-2237.68876645 3202.67781135 -2246.82809411 3187.28492711 -2255.91412354 3171.84429932 C-2256.93019312 3170.11856301 -2257.94818039 3168.39395619 -2258.96630859 3166.66943359 C-2268.25417856 3150.93144703 -2277.20968537 3135.02086556 -2286 3119 C-2286.84908936 3117.4526416 -2286.84908936 3117.4526416 -2287.71533203 3115.87402344 C-2294.9676369 3102.62957351 -2302.01672511 3089.28733107 -2308.953125 3075.875 C-2311.1938971 3071.54414284 -2313.46165656 3067.22894338 -2315.75048828 3062.92333984 C-2326.36704217 3042.92613693 -2336.30583455 3022.6248114 -2345.75 3002.05078125 C-2347.86275666 2997.44844234 -2350.00711589 2992.86364559 -2352.1875 2988.29296875 C-2363.05957978 2965.43613625 -2372.92898493 2942.15457782 -2382.79309082 2918.84869385 C-2383.90843154 2916.21613101 -2385.02709907 2913.58501893 -2386.14746094 2910.95458984 C-2396.39819716 2886.87434804 -2405.88646697 2862.53239437 -2415 2838 C-2415.43088928 2836.84011566 -2415.43088928 2836.84011566 -2415.8704834 2835.65679932 C-2452.04710109 2738.10302779 -2481.21899335 2638.1144134 -2510 2500 C-2510.28973694 2498.502341 -2510.28973694 2498.502341 -2510.58532715 2496.97442627 C-2527.3627427 2409.97633933 -2538.30670295 2322.13753162 -2544.25 2233.75 C-2544.32731354 2232.62003601 -2544.40462708 2231.49007202 -2544.48428345 2230.3258667 C-2547.38835609 2187.22023259 -2548.34056362 2144.08548712 -2548.26074219 2100.89086914 C-2548.24934264 2094.67831682 -2548.25615028 2088.46593589 -2548.26762009 2082.25338936 C-2548.31890461 2049.45737347 -2547.63022329 2016.75603302 -2546 1984 C-2545.96112167 1983.21370586 -2545.92224335 1982.42741173 -2545.88218689 1981.6172905 C-2545.41892568 1972.32280682 -2544.86852366 1963.03543726 -2544.25 1953.75 C-2544.12594788 1951.85951935 -2544.12594788 1951.85951935 -2543.99938965 1949.93084717 C-2537.2536836 1848.09016577 -2522.96933655 1746.85252383 -2485.73052979 1577.93322754 C-2485.04385212 1575.17607531 -2484.36162067 1572.41786998 -2483.68115234 1569.65917969 C-2473.3116339 1527.68404329 -2461.09450502 1486.19968985 -2448 1445 C-2447.72305298 1444.12661987 -2447.44610596 1443.25323975 -2447.1607666 1442.35339355 C-2418.69873299 1352.63709427 -2383.76913198 1264.97303273 -2331 1155 C-2330.31722992 1153.61802429 -2330.31722992 1153.61802429 -2329.6206665 1152.20812988 C-2326.52968324 1145.95615065 -2323.42909228 1139.70901543 -2320.32009888 1133.4659729 C-2319.2945987 1131.40630196 -2318.27019683 1129.34608372 -2317.24703979 1127.2852478 C-2310.55625334 1113.819747 -2303.57009438 1100.5554654 -2296.31066895 1087.38833618 C-2293.31785718 1081.93475413 -2290.41915675 1076.43072821 -2287.5 1070.9375 C-2281.21908854 1059.16163136 -2274.70728337 1047.53790634 -2268 1036 C-2266.92566871 1034.14199215 -2265.85145341 1032.28391723 -2264.77734375 1030.42578125 C-2250.63160915 1006.01278241 -2236.09415826 981.83877392 -2221 958 C-2220.08565186 956.55125488 -2220.08565186 956.55125488 -2219.15283203 955.07324219 C-2203.32777138 930.02620501 -2186.89009172 905.34160277 -2170 881 C-2169.44441406 880.19884766 -2168.88882813 879.39769531 -2168.31640625 878.57226562 C-2160.01292119 866.61635673 -2151.57971472 854.75918106 -2143 843 C-2142.44876465 842.24396484 -2141.8975293 841.48792969 -2141.32958984 840.70898438 C-2133.23068952 829.61767236 -2124.96812869 818.65851831 -2116.625 807.75 C-2113.7876561 804.03873087 -2110.97768152 800.30931519 -2108.1875 796.5625 C-2103.6994778 790.55859933 -2099.0637552 784.67579712 -2094.41601562 778.79541016 C-2092.99682618 776.99597581 -2091.58342245 775.19215236 -2090.171875 773.38671875 C-2084.53698078 766.18232807 -2078.8176445 759.05832496 -2073 752 C-2071.49928825 750.16724924 -2069.99929362 748.33391105 -2068.5 746.5 C-2067.75363281 745.58863281 -2067.00726562 744.67726563 -2066.23828125 743.73828125 C-2064.77392044 741.94680319 -2063.31284469 740.15263362 -2061.85546875 738.35546875 C-2057.1432761 732.55650013 -2052.32769684 726.85926944 -2047.44873047 721.20092773 C-2044.3459916 717.59492165 -2041.30555991 713.94823109 -2038.3125 710.25 C-2034.7555414 705.86628886 -2031.03033482 701.67758353 -2027.2265625 697.5078125 C-2025.02139243 695.02409464 -2022.94488996 692.47205295 -2020.875 689.875 C-2016.34754877 684.27148201 -2011.45649907 679.05059067 -2006.49169922 673.83349609 C-2002.77152118 669.92016444 -1999.16002957 665.93762772 -1995.62109375 661.85961914 C-1993.39379049 659.3045937 -1991.10749682 656.80675236 -1988.8125 654.3125 C-1988.34674561 653.80614014 -1987.88099121 653.29978027 -1987.40112305 652.77807617 C-1986.42281773 651.71491368 -1985.44405542 650.65217152 -1984.46484375 649.58984375 C-1983.03739515 648.04058621 -1981.61224596 646.48924282 -1980.1875 644.9375 C-1968.72628798 632.46847143 -1957.23695023 620.02624477 -1945.13549805 608.17236328 C-1942.24487755 605.32449742 -1939.47991531 602.4374431 -1936.84375 599.3515625 C-1932.23436062 594.01515225 -1927.22284534 589.07336514 -1922.23022461 584.09985352 C-1920.56573723 582.4407268 -1918.90666553 580.77631949 -1917.24804688 579.11132812 C-1912.28132165 574.14181725 -1907.27928314 569.28011563 -1901.93334961 564.71508789 C-1897.93776308 561.17057528 -1894.24502424 557.30513699 -1890.5 553.5 C-1885.37997476 548.29779137 -1880.23718405 543.23021233 -1874.69726562 538.47460938 C-1872.69951651 536.73893551 -1870.83780262 534.90343843 -1869 533 C-1865.93882747 529.89753998 -1862.76857732 527.01893576 -1859.46484375 524.1796875 C-1856.08014972 521.18656663 -1852.79450841 518.09172601 -1849.5 515 C-1845.02066537 510.80021349 -1840.53144479 506.63304735 -1835.875 502.62890625 C-1833.61248819 500.66334911 -1831.40309317 498.64326691 -1829.1875 496.625 C-1825.74621795 493.51471149 -1822.23678702 490.53521688 -1818.625 487.625 C-1814.6117345 484.38047268 -1810.77586874 481.01250676 -1807 477.5 C-1802.44753244 473.26926933 -1797.75386472 469.27724838 -1792.9140625 465.37890625 C-1789.56017081 462.64094373 -1786.27823425 459.82765443 -1783 457 C-1777.07784251 451.90107345 -1771.07202178 446.92001765 -1765 442 C-1763.75099132 440.98084948 -1762.50231548 439.96129098 -1761.25390625 438.94140625 C-1753.14362241 432.32247626 -1744.9728799 425.79002062 -1736.72216797 419.34716797 C-1734.96937764 417.97604562 -1733.22044132 416.60015196 -1731.47265625 415.22265625 C-1724.3405045 409.60186253 -1717.17885692 404.02167565 -1709.96582031 398.50488281 C-1708.53449336 397.40916755 -1707.10430775 396.31196089 -1705.67480469 395.21386719 C-1694.31189687 386.4863458 -1682.8615068 377.91379439 -1671.20605469 369.58105469 C-1668.19841339 367.42551186 -1665.20307629 365.25315995 -1662.20703125 363.08154297 C-1653.61388001 356.85668492 -1644.97652181 350.69784257 -1636.28759766 344.60742188 C-1633.94088247 342.95846 -1631.60131336 341.29967046 -1629.26171875 339.640625 C-1602.75995072 320.93988246 -1575.51039074 303.17840839 -1548 286 C-1547.1843457 285.48969238 -1546.36869141 284.97938477 -1545.52832031 284.45361328 C-1539.37021329 280.6062876 -1533.1900677 276.79564968 -1527 273 C-1525.93507324 272.34628418 -1524.87014648 271.69256836 -1523.77294922 271.01904297 C-1507.00276853 260.73837098 -1490.09547332 250.73340804 -1473 241 C-1471.56527344 240.18136475 -1471.56527344 240.18136475 -1470.1015625 239.34619141 C-1463.41712719 235.53527633 -1456.71508389 231.75663099 -1450 228 C-1448.88254395 227.37480469 -1447.76508789 226.74960937 -1446.61376953 226.10546875 C-1430.2034229 216.93702898 -1413.6556227 208.10306753 -1396.93310547 199.51513672 C-1393.64112246 197.81461678 -1390.36798974 196.0811676 -1387.09838867 194.33813477 C-1363.88117505 181.97538166 -1340.22938223 170.4614573 -1316.31103516 159.52539062 C-1313.1172827 158.05403202 -1309.93770123 156.55615385 -1306.76171875 155.046875 C-1283.47577093 144.01697141 -1259.73243098 134.02275158 -1236 124 C-1235.17421448 123.65112732 -1234.34842896 123.30225464 -1233.49761963 122.94281006 C-1194.84424409 106.63152223 -1155.61991584 91.78736893 -1116 78 C-1114.59430756 77.51016632 -1114.59430756 77.51016632 -1113.16021729 77.01043701 C-1027.37155912 47.13965362 -939.67829848 22.91269284 0 0 Z M-644 158 C-645.07135752 158.89744239 -646.14298738 159.79455973 -647.21484375 160.69140625 C-653.77502303 166.2134584 -660.16128788 171.90720977 -666.4375 177.75 C-667.0874292 178.35150879 -667.7373584 178.95301758 -668.40698242 179.57275391 C-672.3076045 183.23750579 -675.89588853 187.06406062 -679.38110352 191.125 C-681.59862011 193.69331963 -683.92688643 196.15223801 -686.25 198.625 C-692.2421731 205.11013446 -697.69221071 211.94837485 -703 219 C-703.76183594 220.00909424 -703.76183594 220.00909424 -704.5390625 221.03857422 C-742.63645263 271.81554524 -766.99663179 332.05136564 -775 395 C-775.08720306 395.6856604 -775.17440613 396.3713208 -775.26425171 397.07775879 C-777.02828119 411.38942519 -777.36239867 425.59129286 -777.3125 440 C-777.31034485 441.12273315 -777.3081897 442.24546631 -777.30596924 443.40222168 C-777.25356468 460.43885261 -776.81253566 477.15988006 -774 494 C-773.79600586 495.22944336 -773.59201172 496.45888672 -773.38183594 497.72558594 C-764.45044275 549.94888494 -746.1501599 600.16691793 -716 644 C-715.58153809 644.6098877 -715.16307617 645.21977539 -714.73193359 645.84814453 C-694.39917441 675.2882028 -670.18023871 702.86609603 -642 725 C-640.61588041 726.1028583 -639.23176627 727.20572344 -637.84765625 728.30859375 C-628.52571787 735.69336236 -619.07785369 742.68253948 -609 749 C-607.89930176 749.69125977 -607.89930176 749.69125977 -606.77636719 750.39648438 C-522.72393588 802.79371371 -422.58302152 818.89296556 -326 797 C-268.46935328 783.30827377 -214.06143214 755.6072801 -170 716 C-169.47277344 715.52916992 -168.94554688 715.05833984 -168.40234375 714.57324219 C-156.20537489 703.64242059 -144.05091727 692.33121713 -133.9296875 679.421875 C-132.08723181 677.10948122 -130.14465025 674.97003802 -128.125 672.8125 C-112.97735643 655.84349648 -106.02122477 639.30613415 -106.82080078 616.56396484 C-107.79617282 602.60843746 -115.78786356 589.22962769 -126 580 C-141.82079495 567.67235916 -158.65051803 563.98650029 -178.43603516 566.28271484 C-182.02420527 566.84204044 -185.57691038 567.55085362 -189.13671875 568.265625 C-194.74472059 569.33165568 -200.30311302 569.76385961 -206 570 C-206.91265625 570.04125 -207.8253125 570.0825 -208.765625 570.125 C-247.69213314 570.9948661 -287.23388743 556.95640985 -315.67260742 530.16333008 C-317.11851702 528.77914348 -318.55929467 527.38960255 -320 526 C-321.37091797 524.74123047 -321.37091797 524.74123047 -322.76953125 523.45703125 C-347.93975457 499.65514625 -364.80341238 462.38009413 -366.12280273 427.77954102 C-366.46691082 412.03947235 -366.66978783 396.40123895 -363 381 C-362.70198486 379.74533936 -362.70198486 379.74533936 -362.39794922 378.46533203 C-353.09705179 340.66955036 -330.72866812 307.44716432 -298 286 C-297.34306152 285.56848633 -296.68612305 285.13697266 -296.00927734 284.69238281 C-273.80129815 270.35741285 -248.67797645 262.76612736 -222.41015625 260.6171875 C-204.1200409 259.06689819 -189.26081705 253.73467522 -176.1875 240.4375 C-165.58771434 227.80755281 -160.42704585 212.36834632 -161 195.9375 C-162.84320893 178.72114429 -170.72207538 164.12298903 -184 153 C-264.18787125 89.0422309 -370.44653625 62.35541743 -644 158 Z M669.2265625 828 C659.43559895 840.32568 656.4774012 853.34772796 656.5625 868.8125 C656.54251953 870.08931641 656.52253906 871.36613281 656.50195312 872.68164062 C656.51028075 889.04543026 661.85168095 902.78080202 673.0625 914.75 C685.22816242 926.29820081 700.13580497 932.26233192 717 932 C734.02577167 930.39315006 747.47280964 923.62935552 758.9921875 910.77734375 C769.21358672 898.34057688 772.53245161 884.9905511 772.4375 869.125 C772.45748047 867.94808594 772.47746094 866.77117188 772.49804688 865.55859375 C772.48880825 848.76276893 766.21045992 834.61557043 754.7109375 822.51171875 C741.97256481 810.70945126 727.21544117 806.33074615 710.21484375 806.7578125 C693.78648242 807.50104408 679.97749713 815.87559795 669.2265625 828 Z M-1899 1059 C-1899.8559375 1059.32742188 -1900.711875 1059.65484375 -1901.59375 1059.9921875 C-1915.96580198 1066.22310877 -1925.86835638 1079.21624301 -1931.5229187 1093.38156128 C-1933.74198432 1099.07716583 -1935.60425827 1104.86858424 -1937.4453125 1110.6953125 C-1938.36201587 1113.54044318 -1939.28161019 1116.38462355 -1940.20214844 1119.22851562 C-1940.82158971 1121.17270907 -1941.42591429 1123.12177859 -1942.015625 1125.07519531 C-1946.89225635 1141.13278734 -1946.89225635 1141.13278734 -1951.40893555 1145.1340332 C-1954.56931736 1146.49098072 -1957.64906432 1147.21668709 -1961 1148 C-1964.42657588 1149.18085188 -1967.80401417 1150.48905829 -1971.19140625 1151.77734375 C-1973.06076911 1152.46582972 -1974.93123333 1153.15133198 -1976.80273438 1153.83398438 C-1977.74979248 1154.18033936 -1978.69685059 1154.52669434 -1979.67260742 1154.88354492 C-1981.60020757 1155.5865482 -1983.52859621 1156.28739318 -1985.45776367 1156.98608398 C-2006.73739611 1164.70426321 -2024.90507906 1173.0458613 -2035.3125 1194.4375 C-2041.37271239 1208.40022935 -2041.92760098 1223.51530814 -2037 1238 C-2030.62215109 1252.82979502 -2020.05634063 1264.71937682 -2005.17578125 1271.18359375 C-2004.49163147 1271.48210236 -2003.80748169 1271.78061096 -2003.1026001 1272.08816528 C-1996.99883447 1274.68849444 -1990.78005965 1276.90702725 -1984.515625 1279.0859375 C-1983.01909142 1279.61121788 -1983.01909142 1279.61121788 -1981.49232483 1280.14710999 C-1977.35945951 1281.59692924 -1973.22753979 1283.04624585 -1969.07617188 1284.44238281 C-1966.00270987 1285.48050883 -1962.94669918 1286.56035619 -1959.890625 1287.6484375 C-1958.95526917 1287.9518808 -1958.01991333 1288.2553241 -1957.05621338 1288.56796265 C-1950.83296115 1290.8386672 -1950.83296115 1290.8386672 -1948.62252808 1293.92050171 C-1947.5478303 1296.24864536 -1946.74969185 1298.54851974 -1946 1301 C-1945.57430725 1302.19787643 -1945.57430725 1302.19787643 -1945.14001465 1303.41995239 C-1944.23305949 1305.97380539 -1943.38240408 1308.54167216 -1942.5390625 1311.1171875 C-1941.89617375 1313.04308242 -1941.25293366 1314.96886008 -1940.609375 1316.89453125 C-1939.6158154 1319.8835387 -1938.62548785 1322.87351633 -1937.64160156 1325.86572266 C-1930.67606841 1347.00239295 -1922.80607177 1364.73969797 -1902.125 1375.75 C-1887.98058233 1382.29314283 -1871.71684067 1383.64645584 -1856.9140625 1378.25 C-1840.29959109 1371.12314899 -1829.01473928 1360.33750005 -1822.26171875 1343.46875 C-1818.72891895 1334.57282432 -1815.63829435 1325.52428877 -1812.56591797 1316.46118164 C-1811.61051084 1313.64478818 -1810.64743639 1310.83109457 -1809.68359375 1308.01757812 C-1809.07246892 1306.22411084 -1808.46177506 1304.43049663 -1807.8515625 1302.63671875 C-1807.56415192 1301.79727219 -1807.27674133 1300.95782562 -1806.98062134 1300.09294128 C-1805.53185809 1296.1358854 -1805.53185809 1296.1358854 -1805 1292 C-1804.11078857 1291.74510551 -1804.11078857 1291.74510551 -1803.20361328 1291.48506165 C-1796.65815177 1289.5700889 -1790.26617966 1287.35609371 -1783.875 1284.98046875 C-1782.84745605 1284.59941483 -1781.81991211 1284.2183609 -1780.76123047 1283.82575989 C-1778.60251039 1283.02327996 -1776.4444784 1282.21894681 -1774.28710938 1281.4128418 C-1771.0125446 1280.19217628 -1767.73298075 1278.98566083 -1764.453125 1277.77929688 C-1762.34342577 1276.99305695 -1760.23404003 1276.20597524 -1758.125 1275.41796875 C-1757.15804199 1275.0646196 -1756.19108398 1274.71127045 -1755.19482422 1274.34721375 C-1739.54502448 1268.44057945 -1726.97018108 1258.9485174 -1719 1244 C-1712.26887427 1228.52845727 -1711.00936549 1212.78043898 -1717.1875 1196.9375 C-1725.70127528 1178.0097735 -1738.72490498 1168.079649 -1757.67749023 1160.76953125 C-1764.15831602 1158.32577431 -1770.67168702 1155.97347563 -1777.1875 1153.625 C-1779.45926008 1152.79893491 -1781.73074675 1151.97211749 -1784.00195312 1151.14453125 C-1793.96906429 1147.48137901 -1793.96906429 1147.48137901 -1804 1144 C-1804.8898468 1142.34823608 -1804.8898468 1142.34823608 -1805.62231445 1140.17724609 C-1806.04339226 1138.95864395 -1806.04339226 1138.95864395 -1806.47297668 1137.71542358 C-1806.91367744 1136.38289047 -1806.91367744 1136.38289047 -1807.36328125 1135.0234375 C-1807.67774704 1134.10599762 -1807.99221283 1133.18855774 -1808.31620789 1132.24331665 C-1809.32616318 1129.29088491 -1810.32004574 1126.33335578 -1811.3125 1123.375 C-1812.61548246 1119.52672364 -1813.92478472 1115.68063734 -1815.23828125 1111.8359375 C-1815.55773209 1110.90078308 -1815.87718292 1109.96562866 -1816.20631409 1109.00213623 C-1823.64035398 1087.39827677 -1831.34485552 1070.67303788 -1852.42578125 1059.7421875 C-1867.14661347 1052.87755071 -1884.04015142 1052.79412875 -1899 1059 Z M1099 1240 C1092.60824941 1248.44290185 1089.3170924 1257.52813009 1086 1267.4375 C1085.48211709 1268.95105548 1084.96290072 1270.46415533 1084.44238281 1271.97680664 C1083.4205391 1274.95110601 1082.40569247 1277.92764092 1081.39648438 1280.90625 C1080.18595759 1284.46963749 1078.93908091 1288.01880913 1077.671875 1291.5625 C1077.34058594 1292.49006104 1077.00929688 1293.41762207 1076.66796875 1294.37329102 C1076.07367169 1296.03337133 1075.47744268 1297.69276182 1074.87890625 1299.35131836 C1073.81283133 1302.36588871 1073 1304.77653553 1073 1308 C1072.40170883 1308.1724675 1071.80341766 1308.344935 1071.18699646 1308.52262878 C1064.81735603 1310.39172124 1058.57863258 1312.51481796 1052.34765625 1314.80078125 C1051.36687607 1315.15963913 1050.38609589 1315.51849701 1049.37559509 1315.88822937 C1047.31529228 1316.64378061 1045.25561215 1317.40103185 1043.1965332 1318.15991211 C1040.0773718 1319.30703067 1036.9538589 1320.44170355 1033.83007812 1321.57617188 C1013.69843958 1328.94767353 996.79588886 1336.9229944 986.46484375 1356.98046875 C979.14320688 1373.48083406 979.7876522 1389.23643392 986.09765625 1405.8984375 C992.48797058 1419.6321978 1003.9154563 1430.28919923 1017.80908203 1436.2121582 C1021.35464294 1437.48712199 1024.99602024 1438.29325667 1028.66142273 1439.14993286 C1065.39292366 1447.77911731 1065.39292366 1447.77911731 1074.19622803 1458.73266602 C1081.72783466 1470.97088071 1084.89981645 1485.36821991 1087.90997314 1499.26977539 C1091.2618352 1514.57730272 1099.18289279 1527.00725947 1112.3125 1535.875 C1126.17856334 1544.08023805 1140.9787203 1547.14010574 1156.83984375 1544.31640625 C1171.67352586 1540.36622129 1184.2500353 1532.56244705 1192.875 1519.625 C1197.5790203 1511.38901499 1200.78873704 1503.5795046 1202.59481812 1494.28636169 C1208.93033101 1462.31655991 1208.93033101 1462.31655991 1219.6428833 1453.93127441 C1231.93118295 1446.44797132 1246.26169483 1442.88318862 1260.09803772 1439.39674377 C1276.81588869 1435.16170366 1289.99008133 1427.21338946 1299.5 1412.5625 C1307.98840418 1397.73867565 1310.13553422 1382.32799197 1305.83398438 1365.8671875 C1301.75696743 1351.56330986 1292.40501824 1340.10099575 1280 1332 C1268.96963701 1326.07844842 1256.92492665 1322.128455 1245.1940918 1317.85693359 C1241.77990505 1316.61312547 1238.36927941 1315.35990305 1234.95898438 1314.10546875 C1232.79186778 1313.31195053 1230.62455717 1312.51896193 1228.45703125 1311.7265625 C1227.43632034 1311.3516568 1226.41560944 1310.9767511 1225.3639679 1310.59048462 C1224.4250621 1310.24947723 1223.48615631 1309.90846985 1222.51879883 1309.55712891 C1221.69197098 1309.25545807 1220.86514313 1308.95378723 1220.01325989 1308.64297485 C1218.0347074 1307.89858957 1218.0347074 1307.89858957 1216 1308 C1215.74114014 1306.73196533 1215.48228027 1305.46393066 1215.21557617 1304.1574707 C1214.02146271 1298.79882367 1212.33769348 1293.66685597 1210.55078125 1288.48046875 C1210.04722359 1287.01073357 1210.04722359 1287.01073357 1209.53349304 1285.51130676 C1208.8242914 1283.44889929 1208.11231598 1281.38744375 1207.39770508 1279.3269043 C1206.32065922 1276.21110392 1205.26263406 1273.08925722 1204.20507812 1269.96679688 C1197.56557293 1250.61602994 1190.01232847 1234.50327732 1171.06640625 1224.4375 C1145.54190818 1212.47187543 1117.41141886 1218.69500662 1099 1240 Z " fill="#00916D" transform="translate(2665,157)"/>
<path d="M0 0 C0.94338982 0.46873787 0.94338982 0.46873787 1.90583801 0.94694519 C3.97467932 1.97802443 6.03599844 3.02325205 8.09741211 4.0690918 C9.55889826 4.80196595 11.02077436 5.53406294 12.48301697 6.26542664 C15.55331677 7.80365731 18.62020327 9.34842253 21.68457031 10.8984375 C25.54244552 12.84968626 29.40609841 14.78911322 33.27210236 16.72419739 C49.39277512 24.7956903 65.40107842 33.01329453 81.16390991 41.76876831 C84.19450568 43.44328688 87.24706494 45.07287203 90.30444336 46.69799805 C101.9593246 52.90140258 113.47000424 59.28765753 124.84399414 65.99316406 C130.53553104 69.34718949 136.26102921 72.60853358 142.06225586 75.76831055 C153.01288471 81.76236567 163.60903301 88.36014854 174.25527954 94.87310791 C178.57813175 97.51506472 182.92190989 100.1198154 187.27636719 102.70922852 C197.77787562 108.95589794 208.09296232 115.47356556 218.37475586 122.07446289 C221.44250656 124.03923075 224.51727486 125.99263138 227.59350586 127.9440918 C239.60394567 135.57452301 251.47884924 143.35420236 263.16723633 151.46948242 C265.25352135 152.91511219 267.34589625 154.35136075 269.44116211 155.78393555 C284.80293619 166.28873297 299.93168129 177.07936284 314.88305664 188.16040039 C317.33212162 189.97049324 319.78784724 191.77115808 322.24584961 193.5690918 C336.02808159 203.65757026 349.39521428 214.16477381 362.62866211 224.9597168 C365.56828994 227.35577108 368.52755595 229.72520965 371.49975586 232.08081055 C375.88280698 235.57401404 380.15795453 239.18547979 384.42407227 242.81958008 C387.8682107 245.74957737 391.35291186 248.61905147 394.87475586 251.45581055 C399.94833079 255.58271261 404.74966728 259.95683612 409.54272461 264.40112305 C411.77143979 266.45694777 414.01993505 268.47198011 416.31225586 270.45581055 C421.18634841 274.68936527 425.93061948 279.0633776 430.67163086 283.44458008 C432.26467402 284.91198144 433.865953 286.3699035 435.46850586 287.8269043 C444.31642307 295.92528374 452.82378594 304.35953441 461.31225586 312.83081055 C461.90265656 313.41862305 462.49305725 314.00643555 463.10134888 314.61206055 C468.84422064 320.33507184 474.54969501 326.03794543 479.81323242 332.21166992 C482.34143442 335.15327824 485.02628645 337.9473165 487.68725586 340.76831055 C492.33864764 345.73900009 496.76375636 350.81802247 501.01928711 356.13549805 C503.14701991 358.75257315 505.33243542 361.30068564 507.54858398 363.84228516 C514.30866563 371.60656603 520.61097956 379.66762308 526.77905273 387.90795898 C528.18480946 389.78558436 529.59950949 391.65612404 531.01538086 393.52612305 C565.80076271 439.84160062 594.2179603 492.39354846 606.74975586 549.26831055 C606.97252197 550.26588379 607.19528809 551.26345703 607.42480469 552.29125977 C611.81675096 573.71447979 612.76251524 595.29854324 612.68676821 617.10322707 C612.67740537 620.79462219 612.68589533 624.48598997 612.69188884 628.17738628 C612.70002184 634.6451138 612.69719547 641.11276151 612.68690541 647.58048488 C612.67156228 657.2625054 612.67381321 666.94446989 612.67930513 676.62649821 C612.68816891 693.13325808 612.68292514 709.63998599 612.66987228 726.14674187 C612.65671355 742.86126891 612.65015735 759.57577944 612.6515789 776.29031181 C612.65170802 777.87697202 612.65170802 777.87697202 612.65183974 779.49568597 C612.6523089 784.88977678 612.65288474 790.28386758 612.65349825 795.67795838 C612.65771501 834.66842076 612.64744817 873.65886845 612.62944603 912.64932632 C612.6116661 951.25089719 612.60011825 989.85246177 612.59688759 1028.45403671 C612.59678435 1029.65377635 612.59668112 1030.85351598 612.59657475 1032.08961136 C612.59563513 1043.04772034 612.59477206 1054.00582932 612.59400083 1064.96393831 C612.59208288 1092.20203256 612.58920506 1119.44012666 612.58567524 1146.67822075 C612.58551529 1147.91845083 612.58535533 1149.1586809 612.58519054 1150.43649371 C612.57732992 1210.73590377 612.55840886 1271.03530969 612.53857422 1331.3347168 C612.53169911 1352.25449622 612.52487296 1373.17427567 612.51824951 1394.09405518 C612.51783866 1395.39153884 612.51742782 1396.68902251 612.51700452 1398.02582386 C612.49796488 1458.36627242 612.48679312 1518.7067217 612.47764513 1579.04717248 C612.47705094 1582.96553076 612.47645336 1586.88388904 612.47585509 1590.80224732 C612.47189567 1616.76986926 612.46807174 1642.73749122 612.46433851 1668.70511319 C612.45690941 1720.37224091 612.44868438 1772.03936851 612.43991237 1823.70649603 C612.43949465 1826.16690285 612.43907749 1828.62730968 612.43866088 1831.0877165 C612.41990667 1941.81995433 612.3918944 2052.55218911 612.35986328 2163.28442383 C612.35956348 2164.32106421 612.35926367 2165.35770459 612.35895478 2166.42575831 C612.34395404 2218.26910923 612.32843202 2270.11245998 612.31225586 2321.95581055 C605.33371644 2324.01535565 598.35456232 2326.07280784 591.37500381 2328.12889671 C589.00729726 2328.82664931 586.63972494 2329.52485761 584.27229691 2330.22355461 C567.25901114 2335.2442233 550.23537292 2340.13285442 533.06225586 2344.58081055 C531.91274445 2344.88087006 530.76323303 2345.18092957 529.57888794 2345.49008179 C413.95577116 2375.64638377 296.20622221 2395.93404668 129.93725586 2410.20581055 C128.79397827 2410.28294281 127.65070068 2410.36007507 126.47277832 2410.43954468 C117.75636785 2411.01924362 109.03627337 2411.50798891 100.31225586 2411.95581055 C99.49485554 2411.99840878 98.67745522 2412.041007 97.83528519 2412.08489609 C62.56884964 2413.91167007 27.34949995 2414.32235462 -7.95985746 2414.27092028 C-10.02187459 2414.26828288 -12.08388995 2414.26668152 -14.14590836 2414.26543808 C-55.44627209 2414.24046494 -96.6667897 2413.96053941 -137.89233398 2411.20904541 C-141.17069046 2410.99030906 -144.44934223 2410.7778149 -147.7282753 2410.56801224 C-226.62162271 2405.50677198 -305.17473716 2396.15566297 -518.68774414 2353.95581055 C-519.76954956 2353.69239868 -520.85135498 2353.42898682 -521.96594238 2353.15759277 C-557.76641461 2344.4212199 -593.30853891 2334.70847607 -628.52774048 2323.85426331 C-629.68521601 2323.49767419 -630.84269154 2323.14108507 -632.03524208 2322.77369022 C-632.91056776 2322.50378993 -633.78589344 2322.23388964 -634.68774414 2321.95581055 C-634.70424688 2268.93237323 -634.72005503 2215.90893572 -634.73535156 2162.88549805 C-634.73565096 2161.84789576 -634.73595035 2160.81029346 -634.73625881 2159.74124868 C-634.76832343 2048.55129574 -634.79599201 1937.36134274 -634.81477356 1826.17138672 C-634.81519191 1823.70128496 -634.81561027 1821.2311832 -634.81602862 1818.76108144 C-634.82479686 1766.91188137 -634.83294699 1715.06268121 -634.84038318 1663.21348093 C-634.84411933 1637.16753189 -634.84797425 1611.12158287 -634.85194147 1585.07563387 C-634.85253921 1581.14672473 -634.85313357 1577.2178156 -634.85372778 1573.28890647 C-634.86290667 1512.796261 -634.87463108 1452.30361734 -634.89373779 1391.81097412 C-634.89414849 1390.51053694 -634.89455919 1389.21009975 -634.89498233 1387.87025538 C-634.90161936 1366.90363967 -634.90847022 1345.93702403 -634.91534946 1324.97040839 C-634.93516291 1264.57286311 -634.95339268 1204.17531921 -634.96116352 1143.777771 C-634.96132413 1142.53547908 -634.96148473 1141.29318717 -634.9616502 1140.01325005 C-634.96514767 1112.74050239 -634.96783215 1085.46775472 -634.96974709 1058.1950069 C-634.97053194 1047.22100801 -634.97143381 1036.24700913 -634.97237587 1025.27301025 C-634.97247615 1024.07196149 -634.97257643 1022.87091272 -634.97267975 1021.63346854 C-634.97596786 982.94949115 -634.98877689 944.26552411 -635.00659077 905.5815509 C-635.02449499 866.60657897 -635.03303913 827.63161708 -635.0286161 788.65664094 C-635.02800688 783.26766138 -635.02750473 777.87868181 -635.02706718 772.48970222 C-635.02697754 771.43333163 -635.0268879 770.37696104 -635.02679554 769.28857921 C-635.02565469 752.5781859 -635.03459741 735.86781387 -635.04777373 719.15742636 C-635.06053012 702.71568094 -635.06254796 686.27396305 -635.05323958 669.83221501 C-635.04810755 660.1997461 -635.05112197 650.56736464 -635.06639515 640.93490598 C-635.07573077 634.52569463 -635.07404123 628.11654537 -635.06364736 621.70733585 C-635.05806918 618.08169924 -635.05691371 614.45623188 -635.06944988 610.83060878 C-635.13793363 589.69798945 -633.93999445 568.87271547 -629.25024414 548.20581055 C-629.00636963 547.12420654 -628.76249512 546.04260254 -628.51123047 544.92822266 C-623.23057637 522.74637373 -615.75330618 500.51481629 -605.69946289 480.04272461 C-604.69708016 477.97506834 -603.7481366 475.89046087 -602.81274414 473.79174805 C-585.45269746 435.12081029 -559.92563306 399.27279392 -532.68774414 366.95581055 C-531.79833201 365.89208306 -530.90901473 364.82827625 -530.01977539 363.7644043 C-525.0276559 357.81142949 -519.94827533 351.95648773 -514.72290039 346.20581055 C-512.91396871 344.20591679 -511.13882613 342.18311622 -509.37524414 340.14331055 C-499.0479759 328.33961399 -488.08739404 317.19723015 -476.98657227 306.12426758 C-474.42485768 303.56795125 -471.86858308 301.00628125 -469.31274414 298.4440918 C-467.66202328 296.79403121 -466.01099254 295.14428057 -464.35961914 293.49487305 C-463.60735046 292.74058014 -462.85508179 291.98628723 -462.08001709 291.20913696 C-458.00140671 287.1483468 -453.83936361 283.24801938 -449.47047424 279.50042725 C-446.52424999 276.94772049 -443.71033837 274.25542002 -440.87524414 271.58081055 C-435.85431074 266.87751292 -430.70434552 262.43396714 -425.33227539 258.1315918 C-422.52935166 255.82549355 -419.85771139 253.41429524 -417.18774414 250.95581055 C-411.86143326 246.06074927 -406.31833719 241.49402035 -400.68774414 236.95581055 C-398.91623119 235.49830285 -397.14540397 234.03996133 -395.37524414 232.58081055 C-389.53020759 227.80075947 -383.60125378 223.13304011 -377.64916992 218.48754883 C-375.59628344 216.88438605 -373.54633467 215.27751003 -371.49633789 213.6706543 C-342.10723253 190.67674924 -311.79176108 169.01973191 -280.85107422 148.16870117 C-278.12053411 146.32763481 -275.39333185 144.48169631 -272.66625977 142.63549805 C-261.84562564 135.32674368 -250.91846589 128.22236729 -239.84259033 121.30683899 C-236.79450039 119.39577163 -233.76104493 117.46199706 -230.72729492 115.52827454 C-209.71148127 102.13500783 -188.2787102 89.39556358 -166.68774414 76.95581055 C-165.36516602 76.19324951 -165.36516602 76.19324951 -164.01586914 75.4152832 C-134.43013595 58.38023436 -104.53608333 41.96441333 -74.19165039 26.3190918 C-70.10534611 24.21133049 -66.02898341 22.08691973 -61.96508789 19.9362793 C-56.22692939 16.90134126 -50.46720837 13.91133644 -44.68774414 10.95581055 C-44.06311279 10.6360022 -43.43848145 10.31619385 -42.79492188 9.98669434 C-38.63361058 7.85998745 -34.4605811 5.75871916 -30.27380371 3.68258667 C-28.89530823 2.9958194 -27.51981787 2.30298307 -26.14758301 1.60379028 C-24.2212022 0.6242211 -22.28462994 -0.33152296 -20.34399414 -1.2824707 C-19.22831055 -1.83974854 -18.11262695 -2.39702637 -16.96313477 -2.97119141 C-10.71718182 -5.0173276 -5.65809704 -2.84178714 0 0 Z " fill="#00CEA2" transform="translate(2261.687744140625,1970.044189453125)"/>
<path d="M0 0 C1.02339981 0.47342331 2.04679962 0.94684662 3.10121155 1.43461609 C4.78373268 2.23014641 4.78373268 2.23014641 6.50024414 3.04174805 C7.0933885 3.31982111 7.68653286 3.59789417 8.29765129 3.88439369 C26.54430055 12.44015243 44.52906038 21.54467125 62.53973389 30.58282471 C66.29795013 32.46736484 70.05841285 34.34739747 73.8189249 36.22735119 C77.51000426 38.07302831 81.200029 39.92080571 84.88972282 41.76925087 C86.61821652 42.63505867 88.34693169 43.50042449 90.07589912 44.36528587 C106.68593337 52.6779218 123.10712168 61.33349803 139.47290039 70.1159668 C140.05735931 70.42951111 140.64181824 70.74305542 141.24398804 71.06610107 C145.42564863 73.3096792 149.60566008 75.55631352 153.78540039 77.8034668 C154.85048828 78.37532715 155.91557617 78.9471875 157.01293945 79.53637695 C168.72575545 85.82919552 180.37449591 92.21888011 191.93334961 98.79052734 C198.19613913 102.34943805 204.48388398 105.85957507 210.78881836 109.34326172 C223.58612918 116.41517249 236.25795824 123.67376065 248.86010742 131.0871582 C251.75611155 132.78628264 254.65815314 134.47453803 257.56274414 136.15893555 C282.53995256 150.64919393 307.24879355 165.57985508 331.78540039 180.8034668 C332.7926416 181.42817871 333.79988281 182.05289062 334.83764648 182.6965332 C366.35003087 202.26384508 397.39292025 222.53846107 428.27978516 243.074646 C429.6713999 243.99971819 431.06347006 244.92410577 432.45605469 245.84771729 C440.58111214 251.23927113 448.59344853 256.75598748 456.50756836 262.45263672 C461.30582719 265.90409739 466.17347591 269.25512005 471.03540039 272.6159668 C480.31310338 279.05056402 489.50054265 285.59611676 498.62915039 292.23999023 C500.80011026 293.81413279 502.9788841 295.37680569 505.16040039 296.9362793 C515.15743365 304.09230597 524.97085893 311.46434144 534.73071289 318.94018555 C539.22668185 322.38312889 543.7488069 325.78931248 548.28540039 329.1784668 C555.16661829 334.32567261 562.00036782 339.53010411 568.78540039 344.8034668 C569.33373535 345.22950195 569.88207031 345.65553711 570.44702148 346.09448242 C577.98114587 351.95845932 585.42492896 357.92552326 592.81933594 363.96459961 C597.1409686 367.4879024 601.50771422 370.94475537 605.91040039 374.3659668 C611.32493178 378.58230735 616.56104513 382.97480845 621.74902344 387.46606445 C625.19605579 390.44913835 628.67860228 393.37302143 632.22290039 396.2409668 C637.91017539 400.86083534 643.4299382 405.6623357 648.95336914 410.4753418 C651.42276497 412.62568294 653.90304373 414.76176599 656.39868164 416.8815918 C663.383534 422.81480525 670.19607199 428.88947563 676.90258789 435.13549805 C679.16775632 437.23185311 681.45054606 439.28611358 683.78540039 441.3034668 C688.96385873 445.79002256 693.9664237 450.46927602 698.98510742 455.13256836 C700.82048789 456.83603242 702.66020213 458.53472783 704.50024414 460.2331543 C711.21481265 466.44764633 717.8315657 472.72941864 724.22290039 479.27783203 C726.92881739 482.03110258 729.70479818 484.63361497 732.62915039 487.1550293 C737.06497538 490.99357179 741.2126042 495.08321651 745.34790039 499.2409668 C746.06397461 499.95317383 746.78004883 500.66538086 747.51782227 501.39916992 C751.54336201 505.43203549 755.36636836 509.57057485 759.0859375 513.88574219 C761.84587485 517.00013781 764.81325259 519.89344445 767.78540039 522.8034668 C771.95695323 526.93206439 776.02215294 531.06779443 779.81665039 535.54956055 C782.7238508 538.87784355 785.76102903 542.08180277 788.78540039 545.3034668 C793.55098632 550.39046708 798.25957961 555.50068107 802.78540039 560.8034668 C803.68355689 561.84797932 804.58202473 562.89222417 805.48071289 563.9362793 C808.07576748 566.95377481 810.66333134 569.97758782 813.24780273 573.00415039 C814.23919425 574.1642894 815.23162943 575.32353774 816.2253418 576.48168945 C821.81466807 582.99636192 827.25739917 589.59632781 832.52661133 596.37304688 C835.45523136 600.13377834 838.4424592 603.83790699 841.47338867 607.51660156 C848.67783287 616.27258898 855.44441386 625.30455612 862.09741211 634.48461914 C863.65821606 636.6287493 865.23573728 638.75909067 866.82055664 640.88549805 C888.59096335 670.28049813 908.2909287 701.82590369 925.37915039 734.15112305 C926.79120844 736.81442142 928.22453689 739.46544038 929.66040039 742.1159668 C958.67743789 796.14251174 979.4560877 855.13533276 988.78540039 915.8034668 C988.93847656 916.79121094 989.09155273 917.77895508 989.24926758 918.79663086 C991.07904528 930.9636246 992.12303062 943.17076149 992.85205066 955.44817579 C992.89572712 956.18156204 992.93940359 956.9149483 992.98440358 957.67055838 C993.91328673 973.62994128 994.06879345 989.55389131 994.03507529 1005.53602015 C994.02880333 1009.61383508 994.03450078 1013.6916395 994.03848904 1017.76945496 C994.04389792 1024.90600629 994.04204147 1032.04252543 994.03516676 1039.17907508 C994.0249163 1049.862243 994.02644348 1060.54538843 994.03009991 1071.22855952 C994.03600221 1089.44424987 994.03252161 1107.65992733 994.02381134 1125.87561607 C994.01503291 1144.315442 994.01066873 1162.75526126 994.01161575 1181.19508934 C994.01170183 1182.94677788 994.01170183 1182.94677788 994.01178965 1184.73385407 C994.01210242 1190.68918478 994.01248632 1196.64451549 994.01289532 1202.5998462 C994.01570508 1245.62592976 994.00886685 1288.6520074 993.9968605 1331.67808914 C993.9851898 1373.60177067 993.97737295 1415.52544904 993.97525633 1457.44913236 C993.97515481 1459.45479065 993.97505087 1461.46044894 993.97494632 1463.46610723 C993.97431809 1475.56087695 993.97374336 1487.65564668 993.97323037 1499.75041641 C993.97195298 1529.81272361 993.97003425 1559.87503075 993.96767998 1589.93733788 C993.96762671 1590.6215842 993.96757344 1591.30583052 993.96751856 1592.01081157 C993.96406585 1636.29674691 993.95797396 1680.58268142 993.94966316 1724.8686161 C993.94953058 1725.5752071 993.94939801 1726.2817981 993.94926141 1727.00980094 C993.94522037 1748.51711314 993.94098349 1770.0244253 993.93670827 1791.53173745 C993.93197815 1815.33188826 993.92728145 1839.13203909 993.92272949 1862.93218994 C993.92259249 1863.64790849 993.92245549 1864.36362705 993.92231434 1865.10103404 C993.90930371 1933.1296207 993.90168905 2001.15820763 993.89546192 2069.18679522 C993.89519764 2072.06969176 993.89493179 2074.9525883 993.89466589 2077.83548484 C993.892219 2104.36532487 993.88983533 2130.8951649 993.88753105 2157.42500494 C993.88743913 2158.48322077 993.88743913 2158.48322077 993.88734535 2159.5628147 C993.88715983 2161.69881042 993.88697432 2163.83480613 993.88678883 2165.97080185 C993.88177766 2223.66962669 993.87621527 2281.36845147 993.87029555 2339.06727622 C993.87008684 2341.1028835 993.86987856 2343.13849079 993.8696704 2345.17409807 C993.8598414 2441.26905685 993.84653546 2537.36401482 993.81713867 2711.7355957 C993.81683887 2713.4512696 993.81683887 2713.4512696 993.816533 2715.20160357 C993.80653269 2772.40222471 993.7961847 2829.60284579 993.78540039 2886.8034668 C990.33438637 2888.69303687 986.88213785 2890.58034089 983.4296875 2892.46728516 C982.46676537 2892.99455956 981.50384323 2893.52183395 980.51174164 2894.06508636 C970.87391666 2899.32998016 961.13064798 2904.37682935 951.34790039 2909.3659668 C950.45787323 2909.82079437 949.56784607 2910.27562195 948.65084839 2910.74423218 C936.13077926 2917.13925269 923.57544344 2923.42976112 910.83422852 2929.37475586 C907.93408582 2930.73379134 905.04066287 2932.1060476 902.14892578 2933.48283386 C849.92523249 2958.34695268 796.64453407 2980.80545075 742.53540039 3001.2409668 C741.55289307 3001.61294189 740.57038574 3001.98491699 739.55810547 3002.36816406 C738.23975708 3002.86014282 738.23975708 3002.86014282 736.89477539 3003.36206055 C735.76507324 3003.78442993 735.76507324 3003.78442993 734.61254883 3004.21533203 C732.78540039 3004.8034668 732.78540039 3004.8034668 730.78540039 3004.8034668 C730.7850583 3003.90162215 730.7850583 3003.90162215 730.7847093 3002.98155842 C730.76533112 2951.91706743 730.74550056 2900.85257662 730.7253418 2849.78808594 C730.72494266 2848.77692765 730.72454352 2847.76576936 730.72413229 2846.72396992 C730.68134714 2738.3645977 730.63565215 2630.00522718 730.58407593 2521.64585876 C730.58293085 2519.23855146 730.58178578 2516.83124415 730.58064071 2514.42393685 C730.55659579 2463.89248134 730.5321418 2413.36102603 730.50721534 2362.82957094 C730.49469414 2337.4454577 730.48225154 2312.06134442 730.46988326 2286.6772311 C730.46801711 2282.84816443 730.46614872 2279.01909775 730.46428023 2275.19003108 C730.43553237 2216.23687721 730.40846879 2157.28372315 730.3862915 2098.33056641 C730.38581474 2097.06329076 730.38533798 2095.79601512 730.38484677 2094.49033718 C730.37717033 2074.05846634 730.36963541 2053.62659545 730.36211928 2033.19472455 C730.34046492 1974.33529444 730.31776182 1915.47586558 730.28813744 1856.61643887 C730.28752857 1855.40570157 730.28691971 1854.19496427 730.28629239 1852.94753797 C730.27290665 1826.36708336 730.25898287 1799.78662907 730.24454984 1773.20617501 C730.2387517 1762.51062852 730.23303099 1751.81508199 730.22733688 1741.11953545 C730.22671183 1739.94896423 730.22608677 1738.77839302 730.22544277 1737.57234995 C730.20535142 1699.87434181 730.1915599 1662.1763346 730.18108223 1624.47832265 C730.17049625 1586.49455888 730.15371226 1548.51080327 730.12835007 1510.52704633 C730.1248443 1505.27429848 730.12140937 1500.02155057 730.1180172 1494.76880264 C730.11734969 1493.73914296 730.11668218 1492.70948327 730.11599445 1491.64862178 C730.10562166 1475.36527584 730.10191944 1459.08193554 730.10102252 1442.79858661 C730.10000206 1426.77430416 730.09186695 1410.75003829 730.07624447 1394.72576329 C730.06730617 1385.33966595 730.06374877 1375.95360473 730.06831792 1366.56750402 C730.07081105 1360.32016087 730.06599189 1354.07284992 730.05542931 1347.82551529 C730.04965555 1344.29279141 730.04678675 1340.76014183 730.05300914 1337.22741697 C730.08212262 1315.01814555 729.15174582 1293.00653922 725.59790039 1271.0534668 C725.49280151 1270.39535004 725.38770264 1269.73723328 725.27941895 1269.05917358 C717.68555168 1221.88601969 701.30952809 1177.26598785 679.78540039 1134.8034668 C679.29297852 1133.8242627 678.80055664 1132.84505859 678.29321289 1131.83618164 C658.19272947 1092.00307586 632.30235459 1054.83983292 603.96508789 1020.4519043 C602.48309102 1018.65119843 601.00941245 1016.84362109 599.54321289 1015.0300293 C595.13992755 1009.59067682 590.61332482 1004.31078862 585.90258789 999.13549805 C584.0048887 997.0452279 582.13806624 994.93360565 580.28540039 992.8034668 C576.17224703 988.08792942 571.98751113 983.4397586 567.78540039 978.8034668 C566.60578735 977.49357788 566.60578735 977.49357788 565.40234375 976.15722656 C556.6313491 966.52552305 547.45081064 957.31660717 538.22973633 948.11743164 C535.52316714 945.41625793 532.82203143 942.70973251 530.12133789 940.00268555 C528.37947119 938.26147915 526.63729459 936.5205827 524.89477539 934.7800293 C524.09875916 933.98198883 523.30274292 933.18394836 522.48260498 932.36172485 C518.30726741 928.20367087 514.05998919 924.1950412 509.58441162 920.3609314 C506.39819152 917.60251336 503.35185888 914.69345286 500.28540039 911.8034668 C495.19936179 907.03690142 490.08813176 902.32924119 484.78540039 897.8034668 C483.74088787 896.90531029 482.69664302 896.00684246 481.65258789 895.1081543 C471.11554385 886.04712216 460.56109226 877.00451845 449.77758789 868.23706055 C447.54775699 866.42350356 445.3246816 864.60287281 443.10571289 862.77612305 C435.8336574 856.80582752 428.47696185 850.99615049 420.9206543 845.38964844 C415.87815465 841.64352961 410.91684888 837.80345345 405.97290039 833.9284668 C392.6657291 823.52707981 379.02688591 813.59017156 365.19482422 803.90014648 C362.43545884 801.96559296 359.68274636 800.02240774 356.9387207 798.06616211 C346.15378823 790.38678949 335.19330571 782.99572713 324.16040039 775.6784668 C322.48577295 774.5654086 320.81129343 773.45212781 319.13696289 772.33862305 C315.88244969 770.17452585 312.62689797 768.01200473 309.37060547 765.85058594 C305.76045219 763.45329504 302.1561275 761.04743624 298.55387878 758.63829041 C292.69760159 754.72345217 286.81930236 750.85359364 280.84790039 747.1159668 C280.06181396 746.62233643 279.27572754 746.12870605 278.46582031 745.62011719 C276.77926209 744.56156595 275.09215964 743.50388135 273.40454102 742.44702148 C270.72004129 740.76245287 268.04150487 739.06869097 265.36352539 737.3737793 C249.30252307 727.23710956 233.00418781 717.52259027 216.63616943 707.89257812 C214.89779964 706.86960973 213.16017749 705.84537111 211.42260742 704.82104492 C190.37314154 692.42164005 169.06630823 680.50994589 147.55883789 668.92456055 C143.94848023 666.97836145 140.34869312 665.0155154 136.76196289 663.02612305 C119.08808878 653.24092032 101.07410192 644.10981766 83.06500244 634.96148682 C80.95560177 633.88992776 78.84679008 632.81721767 76.73803711 631.74438477 C56.47348565 621.44538774 36.02366207 611.37158702 15.03540039 602.6159668 C14.08080933 602.21486694 14.08080933 602.21486694 13.10693359 601.80566406 C5.91728951 598.8887894 -0.72627589 597.45480641 -8.46459961 597.4909668 C-9.1387793 597.47485352 -9.81295898 597.45874023 -10.50756836 597.44213867 C-21.95405919 597.43148086 -32.00638431 601.7285153 -42.15209961 606.6159668 C-43.38365539 607.20025991 -44.61559937 607.78373536 -45.84790039 608.36645508 C-49.03030581 609.87496197 -52.2059085 611.39725497 -55.37994385 612.92327881 C-58.2048991 614.27856939 -61.0364559 615.61993303 -63.86694336 616.96362305 C-78.19672643 623.79739063 -92.42131753 630.84626873 -106.63165283 637.92437744 C-108.60495418 638.90702066 -110.57884693 639.88847738 -112.55340576 640.86859131 C-125.79290849 647.44530101 -138.82230283 654.33478958 -151.77120972 661.465271 C-155.22739595 663.35815511 -158.70361468 665.21171406 -162.18725586 667.0534668 C-162.7795549 667.36686508 -163.37185394 667.68026337 -163.98210144 668.00315857 C-165.74707022 668.93665252 -167.51208492 669.87005965 -169.27709961 670.8034668 C-180.47999333 676.75028191 -191.56215023 682.87398096 -202.52856445 689.24780273 C-205.44474699 690.93676066 -208.36994603 692.60933995 -211.29663086 694.2800293 C-225.21714879 702.2415738 -238.96872017 710.44391019 -252.65209961 718.8034668 C-257.47124103 721.74726104 -262.30775351 724.6589949 -267.16113281 727.54589844 C-277.67671452 733.80323513 -288.00700024 740.32911848 -298.3034668 746.93969727 C-301.29152287 748.85271472 -304.28728853 750.75313743 -307.28491211 752.65112305 C-321.2015065 761.4794011 -334.89897256 770.58978388 -348.48071289 779.92456055 C-350.89839682 781.5861515 -353.31924134 783.24295615 -355.74194336 784.8972168 C-365.30276165 791.43363607 -374.78058468 798.08549755 -384.21459961 804.8034668 C-384.92841797 805.31103516 -385.64223633 805.81860352 -386.37768555 806.34155273 C-398.08156662 814.6789242 -409.53145237 823.32469428 -420.93676758 832.06469727 C-423.82607895 834.27023592 -426.73628074 836.44560361 -429.65209961 838.6159668 C-441.14439517 847.2148697 -452.29187868 856.24775815 -463.40600586 865.3269043 C-465.00695441 866.6339422 -466.61057937 867.93770035 -468.21459961 869.2409668 C-474.71336855 874.53066245 -481.12639039 879.91616311 -487.50561523 885.34887695 C-488.65698819 886.32885982 -489.80935315 887.30767825 -490.96264648 888.28540039 C-498.29618714 894.50270323 -505.49647868 900.82971466 -512.55444336 907.3581543 C-514.72681207 909.35507473 -516.91999124 911.31175413 -519.15209961 913.2409668 C-527.73654923 920.70104984 -535.97883583 928.49668525 -543.96850586 936.58862305 C-545.91003832 938.50314288 -547.88616119 940.29140801 -549.96459961 942.0534668 C-558.38555255 949.27387655 -566.28471442 957.34965316 -573.44506836 965.81518555 C-575.76232553 968.41890276 -578.23481141 970.8564493 -580.71459961 973.3034668 C-584.44057111 976.98494722 -588.013162 980.73641819 -591.41381836 984.72143555 C-593.58784163 987.23500258 -595.83850449 989.67122909 -598.08959961 992.1159668 C-602.15877352 996.57735024 -606.01437777 1001.16291397 -609.80444336 1005.86206055 C-612.03188111 1008.58047323 -614.30744489 1011.24468463 -616.60961914 1013.89941406 C-622.28870454 1020.44950829 -627.7027381 1027.13806467 -632.91088867 1034.07006836 C-634.29503249 1035.91040939 -635.68809537 1037.74378537 -637.08178711 1039.5769043 C-653.39102037 1061.09206404 -668.72715617 1083.40113095 -682.21459961 1106.8034668 C-682.70718262 1107.64941406 -683.19976563 1108.49536133 -683.70727539 1109.36694336 C-723.62561448 1178.14894571 -747.83957321 1253.78749113 -747.60348106 1333.83684642 C-747.59626929 1337.45782299 -747.60688384 1341.07876242 -747.61496624 1344.69973126 C-747.62676932 1351.03861893 -747.62772087 1357.37743239 -747.62120398 1363.71632663 C-747.61150912 1373.20543779 -747.61936186 1382.69448223 -747.63040226 1392.18358908 C-747.64873074 1408.36281465 -747.65305655 1424.54201618 -747.64959145 1440.72125053 C-747.64614163 1457.10072226 -747.64927074 1473.48017345 -747.6603241 1489.85964203 C-747.66102011 1490.89676359 -747.66171613 1491.93388515 -747.66243324 1493.00243464 C-747.66601269 1498.29134482 -747.66969821 1503.58025492 -747.67342118 1508.869165 C-747.70010567 1547.08527975 -747.71239759 1585.30138816 -747.7169857 1623.51751137 C-747.72157009 1661.34905787 -747.73235792 1699.18059437 -747.75141335 1737.01213646 C-747.75200292 1738.18821742 -747.75259249 1739.36429839 -747.75319993 1740.57601817 C-747.75858825 1751.31813447 -747.7640527 1762.06025073 -747.76960848 1772.80236695 C-747.78341691 1799.50282516 -747.7962709 1826.20328379 -747.80847645 1852.90374279 C-747.80903295 1854.11945345 -747.80958945 1855.33516411 -747.81016282 1856.58771448 C-747.83713223 1915.68591562 -747.85310342 1974.78411905 -747.86816406 2033.88232422 C-747.87339479 2054.3837484 -747.87867422 2074.88517256 -747.88415527 2095.38659668 C-747.88449517 2096.6581441 -747.88483507 2097.92969153 -747.88518527 2099.23977069 C-747.9010612 2158.38104333 -747.92476397 2217.52231209 -747.95047819 2276.66358118 C-747.952148 2280.50436644 -747.95381444 2284.3451517 -747.95548019 2288.18593696 C-747.96652483 2313.63960451 -747.97770422 2339.093272 -747.98897381 2364.54693945 C-748.01139518 2415.19087478 -748.03302504 2465.83481045 -748.0541109 2516.47874636 C-748.055115 2518.89039398 -748.05611967 2521.3020416 -748.05712488 2523.71368922 C-748.10235707 2632.24271757 -748.13838283 2740.77174827 -748.17041016 2849.30078125 C-748.17071003 2850.31673284 -748.1710099 2851.33268442 -748.17131885 2852.37942242 C-748.18630832 2903.18743705 -748.2007793 2953.99545183 -748.21459961 3004.8034668 C-749.80238106 3004.33212482 -751.38976795 3003.85945361 -752.97698975 3003.38623047 C-753.86100842 3003.12315598 -754.74502708 3002.86008148 -755.6558342 3002.58903503 C-762.02914335 3000.63236124 -768.23356881 2998.16723297 -774.46459961 2995.8034668 C-775.6504364 2995.35445007 -775.6504364 2995.35445007 -776.86022949 2994.8963623 C-820.84466292 2978.19879001 -864.15115102 2959.51978743 -906.70141602 2939.45483398 C-909.79508841 2938.00065747 -912.89348172 2936.55753665 -915.99476624 2935.11972046 C-990.72391779 2900.46392134 -990.72391779 2900.46392134 -1011.21459961 2886.8034668 C-1011.5895829 2884.48277172 -1011.5895829 2884.48277172 -1011.58955844 2881.50498399 C-1011.59682834 2880.37057346 -1011.60409824 2879.23616293 -1011.61158844 2878.06737632 C-1011.60429808 2876.80706228 -1011.59700772 2875.54674823 -1011.58949643 2874.24824286 C-1011.59234207 2872.89934628 -1011.59650376 2871.55045195 -1011.60186831 2870.20156304 C-1011.61287373 2866.45912947 -1011.60497694 2862.71692902 -1011.59425438 2858.97450323 C-1011.58586969 2854.90134284 -1011.59483343 2850.82821578 -1011.60163495 2846.75505757 C-1011.61119097 2839.57677046 -1011.60947349 2832.39855255 -1011.60060672 2825.22026557 C-1011.58738908 2814.47374174 -1011.59138367 2803.72727215 -1011.59883858 2792.98074525 C-1011.61103251 2774.66871413 -1011.6089136 2756.35670918 -1011.59913254 2738.04467773 C-1011.58926692 2719.4752813 -1011.58588925 2700.90590075 -1011.59050941 2682.33650208 C-1011.59093997 2680.58004547 -1011.59093997 2680.58004547 -1011.59137923 2678.7881049 C-1011.59257062 2674.01921471 -1011.59380975 2669.25032454 -1011.59510914 2664.48143438 C-1011.60722442 2620.01086808 -1011.60465914 2575.54031388 -1011.5929203 2531.06974792 C-1011.59009787 2520.36160725 -1011.58729476 2509.65346657 -1011.58464456 2498.94532585 C-1011.58439692 2497.94682671 -1011.58439692 2497.94682671 -1011.58414429 2496.92815587 C-1011.5765475 2466.09962281 -1011.57596926 2435.2710909 -1011.5770395 2404.44255708 C-1011.57713143 2401.75380024 -1011.57721543 2399.0650434 -1011.5772996 2396.37628656 C-1011.5776603 2384.89228644 -1011.57806882 2373.40828632 -1011.5785286 2361.9242862 C-1011.57972855 2331.69886546 -1011.57990878 2301.47344475 -1011.57932568 2271.24802399 C-1011.57931278 2270.55985673 -1011.57929988 2269.87168948 -1011.5792866 2269.16266867 C-1011.57843634 2224.57876912 -1011.57318506 2179.99487131 -1011.56461811 2135.4109726 C-1011.56448159 2134.69899484 -1011.56434506 2133.98701709 -1011.5642044 2133.25346425 C-1011.55962813 2109.40506512 -1011.55476903 2085.55666605 -1011.54989138 2061.70826698 C-1011.54543355 2039.90162139 -1011.54111096 2018.09497577 -1011.53717041 1996.28833008 C-1011.5370401 1995.56726807 -1011.53690978 1994.84620605 -1011.53677552 1994.10329368 C-1011.524458 1925.68524075 -1011.52599609 1857.26718991 -1011.53014205 1788.84913627 C-1011.53036097 1785.22902886 -1011.5305771 1781.60892146 -1011.53079328 1777.98881405 C-1011.53083608 1777.27239422 -1011.53087887 1776.55597439 -1011.53092297 1775.81784487 C-1011.53100939 1774.37096338 -1011.53109579 1772.92408189 -1011.53118216 1771.4772004 C-1011.53126853 1770.03094072 -1011.53135496 1768.58468104 -1011.53144145 1767.13842136 C-1011.5323897 1751.28080114 -1011.53331132 1735.42318091 -1011.53418052 1719.56556068 C-1011.53429886 1717.41124039 -1011.53441841 1715.2569201 -1011.53453804 1713.10259981 C-1011.5369583 1669.28238127 -1011.53684652 1625.46216339 -1011.53383923 1581.64194489 C-1011.53379217 1580.95384265 -1011.53374512 1580.26574042 -1011.53369664 1579.5567866 C-1011.531528 1547.97793498 -1011.52858449 1516.39908346 -1011.52501682 1484.82023196 C-1011.5246351 1481.43557542 -1011.52425702 1478.05091887 -1011.52387891 1474.66626233 C-1011.52380409 1473.99698698 -1011.52372926 1473.32771163 -1011.52365218 1472.63815521 C-1011.52327489 1469.26254666 -1011.52289828 1465.8869381 -1011.52252264 1462.51132954 C-1011.52237256 1461.16325491 -1011.52222247 1459.81518029 -1011.52207237 1458.46710566 C-1011.52199818 1457.80027183 -1011.52192399 1457.133438 -1011.52184755 1456.44639708 C-1011.52139792 1452.41281297 -1011.52094007 1448.37922885 -1011.52047708 1444.34564474 C-1011.51702272 1414.19223629 -1011.51478884 1384.03882851 -1011.51618218 1353.88541985 C-1011.5162124 1353.22111312 -1011.51624262 1352.5568064 -1011.51627375 1351.87236917 C-1011.51660981 1344.5140756 -1011.51697671 1337.15578204 -1011.51735196 1329.79748847 C-1011.51980394 1281.43992155 -1011.51573595 1233.08236263 -1011.50014196 1184.7247979 C-1011.49863204 1179.95788428 -1011.497152 1175.19097065 -1011.49569511 1170.42405701 C-1011.49533437 1169.25417895 -1011.49497363 1168.08430089 -1011.49460196 1166.87897198 C-1011.48907026 1148.37145641 -1011.49019815 1129.86394756 -1011.49409995 1111.35643183 C-1011.49779391 1093.14749282 -1011.49430723 1074.93856677 -1011.48323574 1056.72963063 C-1011.47695823 1046.06126746 -1011.47607127 1035.3929375 -1011.48329534 1024.72457474 C-1011.4875499 1017.62685976 -1011.48447786 1010.52917158 -1011.47561071 1003.43146094 C-1011.47079332 999.41591294 -1011.46891846 995.40043154 -1011.47612609 991.38488558 C-1011.51449039 968.33204776 -1010.75583267 945.40437863 -1007.46459961 922.5534668 C-1007.21081543 920.76960571 -1007.21081543 920.76960571 -1006.9519043 918.94970703 C-997.14269585 852.43264565 -973.64628701 787.65110264 -940.55395508 729.18530273 C-939.28375333 726.92644597 -938.04253666 724.65457385 -936.81225586 722.3737793 C-915.85232332 683.6512662 -890.06433221 647.61158885 -863.21459961 612.8034668 C-862.68560059 612.11704102 -862.15660156 611.43061523 -861.61157227 610.72338867 C-855.86368765 603.28337872 -849.93357446 596.0303323 -843.82788086 588.8815918 C-841.43577692 586.0763936 -839.1000411 583.22883522 -836.77709961 580.3659668 C-828.69924964 570.45944135 -820.33197772 560.83767989 -811.65209961 551.45581055 C-809.69716082 549.32856145 -807.78577916 547.18074427 -805.90209961 544.9909668 C-801.48293739 539.90159988 -796.8515293 535.00792755 -792.23876953 530.09472656 C-789.69044814 527.3793161 -787.147178 524.65935644 -784.60888672 521.93457031 C-775.41724084 512.0899434 -766.03026653 502.46202569 -756.4934082 492.9519043 C-754.18443725 490.64837553 -751.88097184 488.33943544 -749.57788086 486.0300293 C-748.0821082 484.53491633 -746.58602597 483.04011299 -745.08959961 481.5456543 C-744.41550049 480.86953094 -743.74140137 480.19340759 -743.046875 479.49679565 C-739.14185473 475.61075711 -735.13147513 471.90659988 -730.95019531 468.31887817 C-728.58877863 466.25703987 -726.4008362 464.04879086 -724.21459961 461.8034668 C-720.7915317 458.34414854 -717.30501358 455.07428934 -713.60913086 451.9128418 C-710.24350364 448.94801521 -706.9847873 445.87281146 -703.71459961 442.8034668 C-699.23530041 438.60364524 -694.74604221 434.43651226 -690.08959961 430.43237305 C-687.82708779 428.46681591 -685.61769278 426.4467337 -683.40209961 424.4284668 C-679.03174277 420.47975235 -674.51156882 416.7571947 -669.93334961 413.0534668 C-667.29312231 410.8684511 -664.74730241 408.61175289 -662.21459961 406.3034668 C-657.96808275 402.43813334 -653.58446851 398.78948433 -649.12084961 395.1784668 C-646.0106742 392.63681808 -642.95554713 390.03756763 -639.90209961 387.4284668 C-634.85332934 383.12457242 -629.68671585 379.00064278 -624.44799805 374.93115234 C-620.4300346 371.79622717 -616.52089921 368.55766436 -612.65209961 365.2409668 C-607.48723492 360.82292306 -602.18181311 356.62645603 -596.76928711 352.5144043 C-593.45850315 349.99895881 -590.1821049 347.44108286 -586.90722656 344.87915039 C-577.28611257 337.35682872 -567.54359287 330.00667732 -557.75561523 322.70336914 C-555.21148114 320.80113513 -552.67309998 318.89148083 -550.13647461 316.97924805 C-539.97913803 309.32593622 -529.74447804 301.79579194 -519.41040039 294.38305664 C-517.23457995 292.81784002 -515.06537155 291.243904 -512.89819336 289.66674805 C-500.79463715 280.86613716 -488.53051539 272.30378378 -476.21459961 263.8034668 C-475.36588791 263.21727066 -475.36588791 263.21727066 -474.50003052 262.61923218 C-463.60323377 255.0963698 -452.65336321 247.65287967 -441.6796875 240.24267578 C-439.83247996 238.99458891 -437.98612074 237.74524555 -436.140625 236.49462891 C-425.0203606 228.95912818 -413.83176053 221.5705895 -402.43847656 214.45361328 C-398.16623402 211.78415007 -393.93709936 209.05072973 -389.71459961 206.3034668 C-345.21380012 177.42461387 -299.61039376 150.16700909 -253.6105957 123.75366211 C-251.33945296 122.44942859 -249.0689486 121.14408281 -246.79907227 119.83764648 C-221.58371678 105.32763213 -196.12567054 91.29183933 -170.48022461 77.55541992 C-167.15947789 75.77389492 -163.84294311 73.98472422 -160.52709961 72.1940918 C-144.52237435 63.56481069 -128.40143795 55.18238098 -112.21940613 46.8913269 C-107.93481321 44.69363896 -103.66237215 42.47420215 -99.39819336 40.23706055 C-83.71215469 32.02078319 -67.86803245 24.15262692 -51.96459961 16.3659668 C-50.38811646 15.59372269 -50.38811646 15.59372269 -48.77978516 14.80587769 C-42.83321639 11.89520039 -36.87849966 9.00210638 -30.91748047 6.12115479 C-28.32219608 4.85592141 -25.74098878 3.56561528 -23.16186523 2.26782227 C-21.64311157 1.51772875 -20.12423945 0.76787501 -18.60522461 0.01831055 C-17.93585876 -0.32727402 -17.26649292 -0.67285858 -16.57684326 -1.02891541 C-10.39189768 -4.04135113 -6.02426187 -2.7988687 0 0 Z " fill="#00D18E" transform="translate(2259.214599609375,1247.196533203125)"/>
<path d="M0 0 C67.93710064 0 67.93710064 0 88.9375 3.75 C89.91307861 3.92063965 90.88865723 4.0912793 91.89379883 4.26708984 C143.73358451 13.64135801 191.92005755 34.92043309 233 68 C233.89203125 68.69996094 234.7840625 69.39992188 235.703125 70.12109375 C249.83523471 81.38132736 263.39324088 94.14250052 275 108 C275.44827148 108.52916016 275.89654297 109.05832031 276.35839844 109.60351562 C321.59359209 163.18306539 350.05882667 233.00690677 350.16494751 303.5258007 C350.1705953 304.7341978 350.17624309 305.9425949 350.18206203 307.18761009 C350.19662769 310.52081781 350.2069195 313.85398675 350.21528661 317.18721232 C350.22542846 320.82153916 350.24103777 324.45584357 350.25585175 328.09015381 C350.28426299 335.28872445 350.30727004 342.48730319 350.32845972 349.68589832 C350.34620697 355.67267629 350.36618178 361.65944347 350.38750839 367.64620972 C350.622251 433.6993103 350.75446508 499.75274024 350.85449341 565.80616978 C350.86902136 575.3644329 350.88411213 584.92269512 350.89941406 594.48095703 C350.90109256 595.53707008 350.90277106 596.59318313 350.90450042 597.68129961 C350.95930846 631.93973854 351.06541702 666.19777802 351.19899139 700.4559932 C351.33612392 735.6909545 351.42428927 770.92569778 351.44981686 806.16092552 C351.45343869 811.13720279 351.4576057 816.11347946 351.46209717 821.08975601 C351.46296201 822.06909093 351.46382686 823.04842584 351.46471791 824.05743757 C351.48004131 839.81311175 351.54669241 855.56816923 351.63244171 871.32360001 C351.71748288 887.15777318 351.74766713 902.9913035 351.72203386 918.82569085 C351.70845557 928.23074164 351.73659513 937.63349816 351.82482635 947.03815653 C351.87966533 953.32462541 351.87973224 959.60957534 351.83580137 965.8961254 C351.81233195 969.47629907 351.81213911 973.05213056 351.87892652 976.63185512 C352.27027707 998.89068231 352.27027707 998.89068231 346.69406128 1005.72044778 C343.64409974 1008.82986664 340.35276261 1011.40338748 336.73287868 1013.81462075 C334.46789446 1015.3639879 332.54822808 1017.1819542 330.60546875 1019.11328125 C324.5861244 1024.74948475 318.54738824 1030.35632081 312.3984375 1035.8515625 C309.70940633 1038.26030378 307.04196128 1040.6918545 304.375 1043.125 C297.24065204 1049.61258001 289.95182199 1055.90650591 282.62573242 1062.17529297 C278.23599344 1065.93361922 273.86414164 1069.71199764 269.5 1073.5 C267.61624655 1075.13271606 265.73223745 1076.76513662 263.84814453 1078.39746094 C262.63215486 1079.45185409 261.4169628 1080.50716792 260.20263672 1081.56347656 C253.33072482 1087.53822745 246.37496669 1093.34451792 239.17944336 1098.92626953 C235.2008329 1102.02303163 231.3289019 1105.22040922 227.5 1108.5 C221.98599357 1113.21721369 216.32924781 1117.7206573 210.60546875 1122.1796875 C206.85360171 1125.10452458 203.14518227 1128.08199143 199.4375 1131.0625 C193.33435774 1135.95730723 187.17173869 1140.76839221 180.94970703 1145.51123047 C178.68051371 1147.24395535 176.4165806 1148.98345983 174.15234375 1150.72265625 C164.3577092 1158.23223964 154.4860597 1165.6052277 144.453125 1172.79296875 C139.80726532 1176.12564524 135.21708029 1179.53132551 130.625 1182.9375 C120.88102918 1190.14697569 110.97271495 1197.11143306 101 1204 C100.45686157 1204.3752179 99.91372314 1204.75043579 99.35412598 1205.13702393 C88.41354371 1212.6899113 77.42418713 1220.17040818 66.41015625 1227.61572266 C64.55584108 1228.87024619 62.7026465 1230.1264277 60.85058594 1231.38427734 C49.34778984 1239.19569575 37.73790874 1246.72121908 25.82543945 1253.8918457 C22.05915085 1256.1782151 18.36902244 1258.58039476 14.6875 1261 C2.45827364 1269 2.45827364 1269 0 1269 C0 850.23 0 431.46 0 0 Z " fill="#00CEA5" transform="translate(3368,2798)"/>
<path d="M0 0 C0 418.77 0 837.54 0 1269 C-9.00110092 1264.49944954 -9.00110092 1264.49944954 -12.99609375 1261.93359375 C-13.87458984 1261.3720459 -14.75308594 1260.81049805 -15.65820312 1260.23193359 C-17.03395508 1259.34368896 -17.03395508 1259.34368896 -18.4375 1258.4375 C-19.41267578 1257.81182129 -20.38785156 1257.18614258 -21.39257812 1256.54150391 C-23.36169863 1255.2770703 -25.32965668 1254.01082436 -27.29638672 1252.74267578 C-29.5811306 1251.26999185 -31.86941468 1249.80316788 -34.16015625 1248.33984375 C-54.01788729 1235.61730504 -73.65517161 1222.48920101 -93 1209 C-93.75861328 1208.47277344 -94.51722656 1207.94554688 -95.29882812 1207.40234375 C-106.54888935 1199.5816361 -117.70925519 1191.64680001 -128.79541016 1183.59570312 C-130.98714657 1182.00930343 -133.18569808 1180.43286229 -135.38671875 1178.859375 C-145.38236671 1171.70319872 -155.19550317 1164.33255633 -164.953125 1156.85546875 C-169.39991874 1153.44978942 -173.88142576 1150.09353894 -178.375 1146.75 C-184.80781133 1141.95122608 -191.08976492 1136.98369358 -197.3359375 1131.9453125 C-200.94743038 1129.03343825 -204.59520217 1126.16970521 -208.25 1123.3125 C-214.23627814 1118.62487211 -220.13124848 1113.83411237 -226 1109 C-227.79157706 1107.54155659 -229.58324502 1106.08322483 -231.375 1104.625 C-236.01754973 1100.82895506 -240.59917048 1096.96604477 -245.16796875 1093.08203125 C-248.5381234 1090.2217818 -251.9400841 1087.40758766 -255.375 1084.625 C-261.0780134 1079.9814724 -266.6198598 1075.16259591 -272.1640625 1070.33203125 C-275.2353542 1067.65766167 -278.32814249 1065.00997371 -281.42993164 1062.37109375 C-287.5190863 1057.18782666 -293.46559811 1051.8784686 -299.3359375 1046.44921875 C-301.53090777 1044.43126221 -303.7466621 1042.45196555 -306 1040.5 C-310.90694672 1036.24190574 -315.669794 1031.82655922 -320.44873047 1027.42626953 C-322.89807994 1025.17428659 -325.35636141 1022.93207349 -327.8125 1020.6875 C-328.73298602 1019.8091695 -329.65347204 1018.93083901 -330.60185158 1018.02589244 C-332.88982073 1015.9038018 -335.22938842 1014.12238621 -337.82137287 1012.38830596 C-344.33849643 1007.72835293 -349.02461086 1003.20696136 -350.38063455 995.05971277 C-351.03251579 988.21314059 -350.97697789 981.36524161 -350.85259698 974.49671344 C-350.80338832 970.85105126 -350.84208736 967.20609266 -350.86925685 963.56034499 C-350.90485481 957.17999349 -350.88510791 950.80170757 -350.82845688 944.42153549 C-350.74444781 934.93369828 -350.74691315 925.4472361 -350.76658566 915.95911738 C-350.79720184 899.99038734 -350.75772308 884.02255025 -350.67764664 868.05402184 C-350.59844953 852.231697 -350.54917905 836.40975551 -350.53997421 820.58722878 C-350.53937849 819.60196765 -350.53878277 818.61670652 -350.538169 817.60158899 C-350.53527722 812.597092 -350.53288454 807.59259489 -350.53066288 802.58809755 C-350.51382526 767.14629177 -350.42521917 731.70498743 -350.29638672 696.26342773 C-350.17155053 661.89916101 -350.08642084 627.5351322 -350.05029297 593.1706543 C-350.04916927 592.11281633 -350.04804556 591.05497835 -350.04688781 589.96508469 C-350.0378621 581.45370091 -350.02897834 572.94231698 -350.02035631 564.43093278 C-349.98298145 527.62831861 -349.91409241 490.82575765 -349.83828716 454.02320491 C-349.82612595 448.08861058 -349.81460981 442.15401543 -349.80364235 436.21941878 C-349.76335523 414.42592013 -349.71394959 392.63250959 -349.63320209 370.83911874 C-349.60148989 362.23866795 -349.57385055 353.63826459 -349.5594902 345.0377655 C-349.54753072 337.89714462 -349.52549282 330.75664408 -349.49035794 323.61609802 C-349.47297149 320.03013963 -349.4598099 316.4443258 -349.45983125 312.85832163 C-349.45494716 290.8016776 -347.95196664 269.16628434 -343.3125 247.5625 C-343.05831299 246.36423584 -342.80412598 245.16597168 -342.54223633 243.93139648 C-327.89026499 177.24102589 -289.46841306 111.9893386 -235 70 C-233.948576 69.14953419 -232.89920407 68.29652709 -231.8515625 67.44140625 C-163.46434646 11.99607325 -85.73060602 0 0 0 Z " fill="#00CEA5" transform="translate(1132,2798)"/>
<path d="M0 0 C-1.52495545 4.16503457 -4.53665099 6.18061493 -8 8.6875 C-13.15145595 12.52736487 -17.99540925 16.5541268 -22.7265625 20.91015625 C-24.84630212 22.85871415 -27.00483469 24.74757333 -29.1875 26.625 C-35.65789689 32.27685271 -41.48150558 38.42187072 -47 45 C-47.4134668 45.48903809 -47.82693359 45.97807617 -48.25292969 46.48193359 C-89.3624775 95.40435539 -112.20069198 157.1492804 -112.25 221.0625 C-112.25067474 221.85346069 -112.25134949 222.64442139 -112.25204468 223.45935059 C-112.16299089 289.63214302 -87.42038573 353.89299713 -43 403 C-42.43104004 403.63067383 -41.86208008 404.26134766 -41.27587891 404.91113281 C-30.12255275 417.2129987 -18.22491068 427.97478098 -5 438 C-4.44860352 438.41894531 -3.89720703 438.83789062 -3.32910156 439.26953125 C16.20698652 453.98290303 38.20790636 466.10944861 61 475 C58.81635437 477.43413651 56.92572698 478.65152856 53.88671875 479.83203125 C53.06252441 480.15268555 52.23833008 480.47333984 51.38916016 480.80371094 C50.4976123 481.13661133 49.60606445 481.46951172 48.6875 481.8125 C47.28830322 482.3369873 47.28830322 482.3369873 45.86083984 482.87207031 C-16.56328653 505.73690335 -87.05334733 502.69984423 -147.31738281 474.78759766 C-165.23754226 466.29668852 -181.46767725 456.30728443 -197 444 C-198.03898437 443.18660156 -199.07796875 442.37320312 -200.1484375 441.53515625 C-215.72327729 428.86308223 -230.249827 414.29672235 -242 398 C-242.82777507 396.89979678 -243.65722712 395.80085344 -244.48828125 394.703125 C-274.63891635 354.35783934 -291.23285152 303.23660177 -292 253 C-292.01321289 252.17725586 -292.02642578 251.35451172 -292.04003906 250.50683594 C-292.46978516 198.65703539 -277.49059516 146.22924435 -247 104 C-246.54689453 103.36046387 -246.09378906 102.72092773 -245.62695312 102.06201172 C-238.18785774 91.59472489 -229.96634963 82.17849878 -221 73 C-220.40364746 72.38318359 -219.80729492 71.76636719 -219.19287109 71.13085938 C-211.85726712 63.55529647 -204.41860861 56.383576 -196 50 C-195.37706055 49.52240234 -194.75412109 49.04480469 -194.11230469 48.55273438 C-182.3449358 39.58339672 -170.06453266 31.93432647 -157 25 C-156.17725586 24.56059082 -155.35451172 24.12118164 -154.50683594 23.66845703 C-127.52451472 9.47882933 -97.27992187 1.05284089 -67 -2 C-65.95199219 -2.11085938 -64.90398438 -2.22171875 -63.82421875 -2.3359375 C-42.56769247 -4.21974941 -21.0779684 -3.17456512 0 0 Z " fill="#00D575" transform="translate(2295,350)"/>
</svg>
